<svg width="791" height="500" viewBox="0 0 791 500" fill="none" xmlns="http://www.w3.org/2000/svg">
<g clip-path="url(#clip0)">
<path d="M648.006 101.439C615.699 96.4013 578.908 93.7131 540.592 93.7131C505.526 93.7131 471.742 95.9613 441.506 100.2C441.514 99.7463 441.52 99.2925 441.541 98.8388C442.343 72.5044 453.654 47.5209 473.059 29.2283C492.463 10.9356 518.421 0.784966 545.383 0.945916C572.346 1.10687 598.174 11.5666 617.348 30.0896C636.525 48.6126 647.519 73.7294 647.994 100.071C648 100.532 648.006 100.986 648.006 101.439Z" fill="#F04747"/>
<g opacity="0.1">
<path opacity="0.1" d="M558.298 0.908275C543.958 -0.984388 529.371 0.0883171 515.482 4.05686C501.593 8.02537 488.712 14.8012 477.675 23.9452C466.638 33.0891 457.689 44.3971 451.411 57.1364C445.133 69.8756 441.663 83.7619 441.229 97.895C441.208 98.3488 441.201 98.8025 441.194 99.2556C450.177 97.9963 459.479 96.9175 469.029 96.0163C470.196 72.4713 479.764 50.0686 496.07 32.6959C512.376 15.3233 534.392 4.07684 558.298 0.908275Z" fill="white"/>
</g>
<path d="M693.175 109.443C678.306 105.504 663.219 102.375 647.994 100.071C623.035 96.2925 597.874 93.93 572.636 92.995C562.123 92.5756 551.416 92.3588 540.592 92.3588C532.013 92.3588 523.502 92.4944 515.11 92.765C490.492 93.4756 465.932 95.5031 441.541 98.8388C423.485 101.268 405.605 104.81 388.006 109.443C346.974 120.528 324.375 135.384 324.375 151.27C324.375 167.156 346.974 182.013 388.006 193.098C416.863 200.898 452.442 206.214 491.209 208.651C507.21 209.668 523.752 210.182 540.592 210.182C557.487 210.182 574.084 209.661 590.134 208.645C625.413 206.417 658.056 201.806 685.375 195.102C685.519 195.061 685.656 195.028 685.806 194.994C687.644 194.547 689.463 194.079 691.256 193.612C691.9 193.436 692.537 193.267 693.175 193.098C693.212 193.083 693.25 193.072 693.288 193.064C693.9 192.901 694.5 192.732 695.106 192.569C696.313 192.231 697.5 191.899 698.675 191.554C698.725 191.54 698.775 191.526 698.825 191.513C699.844 191.215 700.844 190.917 701.831 190.619C702.644 190.369 703.45 190.125 704.244 189.874C704.825 189.691 705.4 189.509 705.969 189.326C706.388 189.191 706.794 189.062 707.194 188.926C707.744 188.75 708.294 188.568 708.831 188.384C709.063 188.31 709.287 188.236 709.512 188.154C710.031 187.985 710.538 187.809 711.044 187.633C711.588 187.443 712.138 187.247 712.675 187.058C713.131 186.902 713.581 186.739 714.025 186.577C714.394 186.434 714.762 186.299 715.137 186.164C716.156 185.791 717.156 185.405 718.138 185.026C718.631 184.829 719.125 184.64 719.606 184.444C720.087 184.254 720.569 184.058 721.044 183.861C721.819 183.543 722.581 183.225 723.331 182.906C723.687 182.744 724.056 182.588 724.413 182.439C724.681 182.318 724.944 182.203 725.212 182.081C725.406 181.999 725.6 181.911 725.788 181.823C726.488 181.512 727.181 181.193 727.862 180.875C730.469 179.656 732.9 178.41 735.156 177.138C749.331 169.208 756.806 160.412 756.806 151.271C756.806 135.384 734.212 120.528 693.175 109.443ZM692.8 191.798C663.912 199.605 628.238 204.921 589.365 207.338C573.558 208.32 557.217 208.828 540.592 208.828C524.022 208.828 507.736 208.326 491.978 207.344C453.044 204.934 417.314 199.618 388.381 191.798C347.999 180.882 325.761 166.493 325.761 151.27C325.763 149.925 325.936 148.586 326.274 147.282C329.808 133.549 351.547 120.698 388.381 110.743C405.846 106.146 423.589 102.625 441.506 100.2C466.044 96.8456 490.753 94.8113 515.519 94.1056C523.779 93.8419 532.138 93.7106 540.592 93.7131C551.271 93.7131 561.832 93.9231 572.213 94.3294C597.598 95.2556 622.906 97.6294 648.006 101.439C663.1 103.733 678.056 106.839 692.8 110.743C729.631 120.698 751.362 133.543 754.9 147.268C755.244 148.576 755.419 149.921 755.425 151.27C755.425 166.493 733.181 180.882 692.8 191.798Z" fill="#3F3D56"/>
<path d="M756.412 151.886C756.412 160.933 748.781 169.493 735.156 177.137C732.894 178.41 730.456 179.656 727.862 180.875C727.181 181.193 726.487 181.511 725.787 181.823C725.6 181.911 725.406 181.999 725.212 182.081C724.944 182.203 724.681 182.318 724.412 182.439C724.056 182.588 723.687 182.744 723.331 182.906C722.581 183.224 721.819 183.543 721.044 183.861C720.569 184.058 720.087 184.254 719.606 184.444C719.125 184.64 718.631 184.829 718.137 185.026C717.156 185.405 716.156 185.791 715.137 186.164C714.762 186.299 714.4 186.434 714.025 186.576C713.581 186.739 713.131 186.902 712.681 187.057C712.137 187.247 711.587 187.443 711.044 187.633C710.537 187.809 710.031 187.985 709.512 188.154C709.287 188.236 709.062 188.31 708.831 188.384C708.294 188.568 707.744 188.75 707.194 188.926C706.794 189.062 706.387 189.191 705.969 189.326C705.4 189.509 704.825 189.691 704.244 189.874C703.45 190.125 702.644 190.369 701.831 190.619C700.844 190.917 699.844 191.215 698.825 191.513C698.775 191.526 698.731 191.54 698.675 191.554C697.5 191.899 696.312 192.231 695.106 192.569C694.5 192.732 693.9 192.901 693.287 193.064C693.25 193.072 693.212 193.083 693.175 193.097C692.537 193.267 691.9 193.436 691.256 193.612C689.469 194.072 687.65 194.54 685.806 194.994C685.656 195.027 685.519 195.061 685.375 195.102C658.8 201.589 626.194 206.316 590.107 208.598C574.299 209.593 557.82 210.121 540.89 210.121C523.807 210.121 507.189 209.586 491.257 208.57C396.149 202.51 325.366 179.433 325.366 151.886C325.374 150.21 325.635 148.544 326.142 146.943C326.184 147.058 326.225 147.167 326.274 147.282C336.163 172.661 406.344 193.172 497.404 198.176C511.354 198.948 525.803 199.347 540.592 199.347C555.443 199.347 569.947 198.941 583.953 198.169C674.937 193.145 745.05 172.628 754.9 147.268C755.069 146.862 755.212 146.456 755.337 146.049C756.044 147.919 756.406 149.894 756.412 151.886Z" fill="#3F3D56"/>
<path d="M387.902 144.597C376.369 144.597 364.111 142.173 364.111 137.679C364.111 133.186 376.369 130.761 387.902 130.761C399.436 130.761 411.693 133.186 411.693 137.679C411.693 142.173 399.436 144.597 387.902 144.597ZM387.902 132.116C374.698 132.116 365.497 135.047 365.497 137.679C365.497 140.311 374.698 143.243 387.902 143.243C401.106 143.243 410.308 140.311 410.308 137.679C410.308 135.047 401.106 132.116 387.902 132.116Z" fill="#3F3D56"/>
<path d="M437.105 176.423C425.572 176.423 413.314 173.999 413.314 169.505C413.314 165.011 425.572 162.587 437.105 162.587C448.639 162.587 460.897 165.011 460.897 169.505C460.897 173.999 448.639 176.423 437.105 176.423ZM437.105 163.941C423.901 163.941 414.7 166.874 414.7 169.505C414.7 172.137 423.901 175.069 437.105 175.069C450.309 175.069 459.511 172.137 459.511 169.505C459.511 166.874 450.309 163.941 437.105 163.941Z" fill="#3F3D56"/>
<path d="M692.825 144.597C681.287 144.597 669.031 142.173 669.031 137.679C669.031 133.186 681.287 130.761 692.825 130.761C704.356 130.761 716.612 133.186 716.612 137.679C716.612 142.173 704.356 144.597 692.825 144.597ZM692.825 132.116C679.619 132.116 670.419 135.047 670.419 137.679C670.419 140.311 679.619 143.243 692.825 143.243C706.025 143.243 715.231 140.311 715.231 137.679C715.231 135.047 706.025 132.116 692.825 132.116Z" fill="#3F3D56"/>
<path d="M643.619 176.423C632.088 176.423 619.829 173.999 619.829 169.505C619.829 165.011 632.088 162.587 643.619 162.587C655.156 162.587 667.413 165.011 667.413 169.505C667.413 173.999 655.156 176.423 643.619 176.423ZM643.619 163.941C630.419 163.941 621.215 166.874 621.215 169.505C621.215 172.137 630.419 175.069 643.619 175.069C656.825 175.069 666.025 172.137 666.025 169.505C666.025 166.874 656.825 163.941 643.619 163.941Z" fill="#3F3D56"/>
<path d="M540.363 191.321C528.829 191.321 516.571 188.896 516.571 184.403C516.571 179.909 528.829 177.484 540.363 177.484C551.896 177.484 564.154 179.909 564.154 184.403C564.154 188.896 551.896 191.321 540.363 191.321ZM540.363 178.838C527.159 178.838 517.957 181.771 517.957 184.403C517.957 187.034 527.159 189.966 540.363 189.966C553.566 189.966 562.768 187.034 562.768 184.403C562.768 181.771 553.566 178.838 540.363 178.838Z" fill="#3F3D56"/>
<path d="M557.902 333.641C573.981 333.641 587.016 320.904 587.016 305.192C587.016 289.481 573.981 276.744 557.902 276.744C541.822 276.744 528.787 289.481 528.787 305.192C528.787 320.904 541.822 333.641 557.902 333.641Z" fill="#2F2E41"/>
<path d="M546.83 323.883L532.661 330.817L536.621 338.544L550.791 331.611L546.83 323.883Z" fill="#2F2E41"/>
<path d="M538.489 337.76C539.33 336.515 537.256 333.731 533.858 331.541C530.459 329.351 527.023 328.586 526.183 329.831C525.342 331.076 527.416 333.861 530.814 336.051C534.213 338.24 537.649 339.006 538.489 337.76Z" fill="#2F2E41"/>
<path d="M568.973 323.883L565.013 331.611L579.183 338.544L583.143 330.817L568.973 323.883Z" fill="#2F2E41"/>
<path d="M584.989 336.051C588.387 333.861 590.462 331.076 589.621 329.831C588.781 328.586 585.345 329.351 581.946 331.541C578.547 333.731 576.474 336.515 577.314 337.76C578.154 339.006 581.591 338.24 584.989 336.051Z" fill="#2F2E41"/>
<path d="M555.863 307.956C561.359 307.956 565.814 303.603 565.814 298.234C565.814 292.864 561.359 288.511 555.863 288.511C550.368 288.511 545.913 292.864 545.913 298.234C545.913 303.603 550.368 307.956 555.863 307.956Z" fill="white"/>
<path d="M558.284 296.369C559.574 295.109 559.566 293.059 558.268 291.789C556.968 290.52 554.869 290.513 553.579 291.773C552.289 293.033 552.297 295.084 553.596 296.354C554.895 297.623 556.994 297.63 558.284 296.369Z" fill="#3F3D56"/>
<path d="M580.869 274.243C581.307 263.711 572.018 254.791 560.12 254.319C548.223 253.846 538.223 262.001 537.786 272.533C537.347 283.066 545.617 285.458 557.515 285.931C569.412 286.403 580.431 284.776 580.869 274.243Z" fill="#F04747"/>
<path d="M597.651 320.089C599.566 318.482 596.874 312.348 591.637 306.387C586.4 300.427 580.602 296.897 578.687 298.503C576.772 300.11 579.465 306.244 584.702 312.205C589.939 318.166 595.736 321.695 597.651 320.089Z" fill="#2F2E41"/>
<path d="M531.183 312.205C536.42 306.244 539.113 300.11 537.198 298.503C535.283 296.897 529.485 300.427 524.248 306.387C519.011 312.348 516.319 318.482 518.234 320.089C520.149 321.695 525.946 318.166 531.183 312.205Z" fill="#2F2E41"/>
<path d="M565.898 316.403C566.213 318.095 565.828 319.839 564.826 321.253C563.826 322.666 562.291 323.634 560.559 323.941C558.829 324.249 557.043 323.872 555.596 322.894C554.15 321.916 553.16 320.416 552.845 318.725L552.843 318.712C552.19 315.19 554.978 313.944 558.583 313.306C562.188 312.668 565.246 312.881 565.898 316.403Z" fill="white"/>
<path d="M508.714 335.454C508.346 335.454 507.994 335.311 507.734 335.057C507.474 334.803 507.328 334.458 507.328 334.099V254.196C507.328 253.837 507.474 253.493 507.734 253.239C507.994 252.984 508.346 252.842 508.714 252.842C509.081 252.842 509.434 252.984 509.694 253.239C509.954 253.493 510.099 253.837 510.099 254.196V334.099C510.099 334.458 509.954 334.803 509.694 335.057C509.434 335.311 509.081 335.454 508.714 335.454Z" fill="#CCCCCC"/>
<path d="M487.924 407.231C487.556 407.231 487.204 407.088 486.944 406.834C486.684 406.58 486.537 406.236 486.537 405.876V347.643C486.537 347.283 486.684 346.939 486.944 346.684C487.204 346.431 487.556 346.288 487.924 346.288C488.291 346.288 488.644 346.431 488.904 346.684C489.164 346.939 489.309 347.283 489.309 347.643V405.876C489.309 406.236 489.164 406.58 488.904 406.834C488.644 407.088 488.291 407.231 487.924 407.231Z" fill="#CCCCCC"/>
<path d="M541.285 359.154C540.917 359.154 540.564 359.011 540.305 358.757C540.045 358.503 539.899 358.159 539.899 357.799V277.896C539.899 277.537 540.045 277.193 540.305 276.939C540.564 276.685 540.917 276.542 541.285 276.542C541.653 276.542 542.005 276.685 542.265 276.939C542.524 277.193 542.671 277.537 542.671 277.896V357.799C542.671 358.159 542.524 358.503 542.265 358.757C542.005 359.011 541.653 359.154 541.285 359.154Z" fill="#CCCCCC"/>
<path d="M521.188 416.711C520.821 416.711 520.468 416.568 520.208 416.314C519.948 416.06 519.802 415.716 519.802 415.356V382.854C519.802 382.495 519.948 382.15 520.208 381.896C520.468 381.643 520.821 381.499 521.188 381.499C521.556 381.499 521.908 381.643 522.168 381.896C522.428 382.15 522.574 382.495 522.574 382.854V415.356C522.574 415.716 522.428 416.06 522.168 416.314C521.908 416.568 521.556 416.711 521.188 416.711Z" fill="#CCCCCC"/>
<path d="M549.601 250.133C549.233 250.133 548.881 249.991 548.621 249.737C548.361 249.483 548.215 249.138 548.215 248.779V216.276C548.215 215.917 548.361 215.573 548.621 215.318C548.881 215.064 549.233 214.922 549.601 214.922C549.968 214.922 550.321 215.064 550.581 215.318C550.841 215.573 550.987 215.917 550.987 216.276V248.779C550.987 249.138 550.841 249.483 550.581 249.737C550.321 249.991 549.968 250.133 549.601 250.133Z" fill="#CCCCCC"/>
<path d="M480.301 264.353C479.933 264.353 479.581 264.211 479.321 263.957C479.061 263.703 478.914 263.358 478.914 262.999V230.496C478.914 230.137 479.061 229.793 479.321 229.539C479.581 229.284 479.933 229.142 480.301 229.142C480.668 229.142 481.021 229.284 481.281 229.539C481.541 229.793 481.687 230.137 481.687 230.496V262.999C481.687 263.358 481.541 263.703 481.281 263.957C481.021 264.211 480.668 264.353 480.301 264.353Z" fill="#CCCCCC"/>
<path d="M600.883 267.739C600.516 267.739 600.163 267.596 599.903 267.342C599.643 267.089 599.497 266.744 599.497 266.385V233.882C599.497 233.523 599.643 233.178 599.903 232.924C600.163 232.671 600.516 232.528 600.883 232.528C601.251 232.528 601.603 232.671 601.863 232.924C602.123 233.178 602.269 233.523 602.269 233.882V266.385C602.269 266.744 602.123 267.089 601.863 267.342C601.603 267.596 601.251 267.739 600.883 267.739Z" fill="#CCCCCC"/>
<path d="M598.111 369.311C597.744 369.311 597.391 369.168 597.131 368.914C596.871 368.66 596.725 368.315 596.725 367.956V328.683C596.725 328.323 596.871 327.979 597.131 327.724C597.391 327.471 597.744 327.328 598.111 327.328C598.479 327.328 598.831 327.471 599.091 327.724C599.351 327.979 599.497 328.323 599.497 328.683V367.956C599.497 368.315 599.351 368.66 599.091 368.914C598.831 369.168 598.479 369.311 598.111 369.311Z" fill="#CCCCCC"/>
<path d="M570.391 403.845C570.024 403.845 569.671 403.702 569.411 403.449C569.151 403.194 569.005 402.85 569.005 402.491V344.257C569.005 343.898 569.151 343.553 569.411 343.299C569.671 343.046 570.024 342.902 570.391 342.902C570.759 342.902 571.111 343.046 571.371 343.299C571.631 343.553 571.777 343.898 571.777 344.257V402.491C571.777 402.85 571.631 403.194 571.371 403.449C571.111 403.702 570.759 403.845 570.391 403.845Z" fill="#CCCCCC"/>
<path d="M575.935 304.305C575.567 304.305 575.215 304.162 574.955 303.908C574.695 303.654 574.549 303.31 574.549 302.951V223.047C574.549 222.689 574.695 222.344 574.955 222.09C575.215 221.836 575.567 221.694 575.935 221.694C576.302 221.694 576.655 221.836 576.915 222.09C577.175 222.344 577.321 222.689 577.321 223.047V302.951C577.321 303.31 577.175 303.654 576.915 303.908C576.655 304.162 576.302 304.305 575.935 304.305Z" fill="#CCCCCC"/>
<path d="M745.856 474.334C747.837 472.711 745.156 466.39 739.869 460.216C734.575 454.041 728.681 450.351 726.694 451.974C724.713 453.597 727.394 459.918 732.681 466.092C737.975 472.267 743.869 475.957 745.856 474.334Z" fill="#2F2E41"/>
<path d="M732.844 467.313C738.056 452.033 729.606 435.517 713.969 430.424C698.331 425.331 681.431 433.589 676.219 448.868C671.006 464.148 679.456 480.664 695.094 485.757C710.731 490.85 727.631 482.592 732.844 467.313Z" fill="#2F2E41"/>
<path d="M717.162 480.978H708.094V496.851H717.162V480.978Z" fill="#2F2E41"/>
<path d="M699.025 480.978H689.962V496.851H699.025V480.978Z" fill="#2F2E41"/>
<path d="M709.606 499.804C713.781 499.804 717.162 498.564 717.162 497.035C717.162 495.506 713.781 494.267 709.606 494.267C705.431 494.267 702.05 495.506 702.05 497.035C702.05 498.564 705.431 499.804 709.606 499.804Z" fill="#2F2E41"/>
<path d="M691.475 499.435C695.644 499.435 699.025 498.196 699.025 496.666C699.025 495.138 695.644 493.898 691.475 493.898C687.3 493.898 683.919 495.138 683.919 496.666C683.919 498.196 687.3 499.435 691.475 499.435Z" fill="#2F2E41"/>
<path d="M695.156 421.432C697.825 410.944 709.587 404.773 721.431 407.648C733.281 410.521 740.725 421.353 738.056 431.841C735.394 442.327 726.55 442.362 714.706 439.487C702.856 436.613 692.494 431.919 695.156 421.432Z" fill="#CCCCCC"/>
<path d="M684.4 450.807C685.506 448.522 680.369 443.874 672.919 440.422C665.475 436.972 658.537 436.026 657.431 438.31C656.319 440.594 661.462 445.243 668.906 448.694C676.35 452.145 683.288 453.091 684.4 450.807Z" fill="#2F2E41"/>
<path d="M700.069 461.66C705.562 461.66 710.019 457.307 710.019 451.937C710.019 446.567 705.562 442.214 700.069 442.214C694.575 442.214 690.119 446.567 690.119 451.937C690.119 457.307 694.575 461.66 700.069 461.66Z" fill="white"/>
<path d="M695.981 451.693C697.812 451.693 699.294 450.241 699.294 448.452C699.294 446.662 697.812 445.211 695.981 445.211C694.144 445.211 692.663 446.662 692.663 448.452C692.663 450.241 694.144 451.693 695.981 451.693Z" fill="#3F3D56"/>
<path d="M699.981 476.3C702.281 476.3 704.137 474.481 704.137 472.237C704.137 469.993 702.281 468.174 699.981 468.174C697.687 468.174 695.825 469.993 695.825 472.237C695.825 474.481 697.687 476.3 699.981 476.3Z" fill="white"/>
<path d="M789.75 500H626.2C626.019 500 625.837 499.929 625.712 499.802C625.581 499.675 625.506 499.502 625.506 499.323C625.506 499.144 625.581 498.971 625.712 498.844C625.837 498.718 626.019 498.646 626.2 498.646H789.75C789.931 498.646 790.106 498.718 790.237 498.844C790.369 498.971 790.444 499.144 790.444 499.323C790.444 499.502 790.369 499.675 790.237 499.802C790.106 499.929 789.931 500 789.75 500Z" fill="#3F3D56"/>
<path d="M653.619 499.997H490.068C489.884 499.997 489.708 499.926 489.578 499.799C489.448 499.673 489.375 499.5 489.375 499.321C489.375 499.141 489.448 498.969 489.578 498.842C489.708 498.715 489.884 498.644 490.068 498.644H653.619C653.8 498.644 653.975 498.715 654.106 498.842C654.238 498.969 654.313 499.141 654.313 499.321C654.313 499.5 654.238 499.673 654.106 499.799C653.975 499.926 653.8 499.997 653.619 499.997Z" fill="#3F3D56"/>
<path d="M340.501 434.296C345.783 436.153 351.453 436.618 356.966 435.647C362.479 434.676 367.649 432.301 371.978 428.752C383.003 419.497 386.46 404.257 389.272 390.141L397.591 348.388L380.174 360.38C367.649 369.004 354.842 377.906 346.171 390.397C337.499 402.888 333.716 419.941 340.681 433.457" fill="#36C255"/>
<path d="M343.191 487.753C340.999 471.783 338.743 455.606 340.284 439.464C341.651 425.128 346.024 411.129 354.928 399.646C359.655 393.563 365.406 388.351 371.923 384.245C373.622 383.172 375.186 385.865 373.494 386.933C362.217 394.06 353.495 404.584 348.584 416.987C343.161 430.78 342.291 445.816 343.225 460.468C343.789 469.329 344.989 478.132 346.194 486.924C346.289 487.321 346.23 487.74 346.028 488.096C345.826 488.451 345.497 488.717 345.107 488.839C344.709 488.946 344.284 488.892 343.926 488.688C343.567 488.484 343.303 488.148 343.192 487.751L343.191 487.753Z" fill="#3F3D56"/>
<path d="M358.969 462.127C361.234 465.57 364.347 468.372 368.009 470.262C371.671 472.153 375.758 473.069 379.877 472.921C390.464 472.419 399.286 465.033 407.227 458.019L430.72 437.276L415.172 436.532C403.991 435.996 392.521 435.494 381.871 438.946C371.221 442.398 361.399 450.693 359.452 461.717" fill="#36C255"/>
<path d="M336.994 496.934C347.547 478.261 359.788 457.508 381.661 450.874C387.742 449.036 394.119 448.378 400.447 448.934C402.442 449.106 401.944 452.181 399.953 452.009C389.345 451.129 378.757 453.93 369.972 459.941C361.518 465.696 354.936 473.696 349.365 482.179C345.953 487.376 342.896 492.793 339.839 498.202C338.862 499.931 336.006 498.683 336.994 496.934Z" fill="#3F3D56"/>
<path d="M326.618 471.091C324.339 471.892 321.891 472.093 319.512 471.674C317.132 471.255 314.901 470.23 313.032 468.698C308.274 464.704 306.782 458.126 305.569 452.034L301.978 434.013L309.495 439.189C314.901 442.911 320.429 446.752 324.171 452.144C327.914 457.535 329.547 464.895 326.541 470.729" fill="#36C255"/>
<path d="M325.458 494.163C326.403 487.27 327.377 480.288 326.712 473.321C326.122 467.134 324.234 461.092 320.391 456.136C318.351 453.511 315.869 451.261 313.056 449.489C312.323 449.026 311.648 450.188 312.378 450.649C317.245 453.725 321.01 458.267 323.129 463.621C325.47 469.573 325.846 476.063 325.443 482.387C325.199 486.211 324.681 490.011 324.161 493.805C324.12 493.977 324.146 494.158 324.233 494.311C324.32 494.464 324.462 494.579 324.631 494.632C324.803 494.678 324.986 494.654 325.14 494.567C325.295 494.479 325.409 494.333 325.457 494.162L325.458 494.163Z" fill="#3F3D56"/>
<path d="M318.647 483.103C317.67 484.589 316.326 485.798 314.746 486.614C313.165 487.43 311.401 487.826 309.624 487.762C305.054 487.545 301.247 484.357 297.819 481.33L287.679 472.377L294.39 472.056C299.216 471.825 304.166 471.608 308.763 473.098C313.359 474.588 317.599 478.168 318.439 482.926" fill="#36C255"/>
<path d="M328.132 498.125C323.577 490.066 318.294 481.109 308.854 478.246C306.229 477.452 303.477 477.169 300.746 477.409C299.884 477.483 300.099 478.81 300.959 478.736C305.537 478.356 310.107 479.565 313.899 482.159C317.547 484.643 320.388 488.096 322.793 491.757C324.266 494 325.584 496.338 326.904 498.672C327.326 499.419 328.558 498.88 328.132 498.125Z" fill="#3F3D56"/>
<path d="M52.132 476.091C73.1744 482.132 73.4237 452.395 76.7719 439.013C64.8781 447.112 44.8242 458.658 52.2095 475.729" fill="#36C255"/>
<path d="M53.2927 499.163C50.5286 483.529 50.3541 463.729 65.6944 454.489C66.4269 454.026 67.1019 455.188 66.3719 455.649C51.5616 464.607 52.0015 483.736 54.5896 498.805C54.63 498.975 54.6029 499.154 54.5141 499.304C54.4253 499.454 54.2818 499.563 54.1137 499.609C53.9456 499.656 53.7661 499.635 53.6131 499.552C53.46 499.468 53.3452 499.329 53.2931 499.162L53.2927 499.163Z" fill="#3F3D56"/>
<path d="M112.602 483.103C122.232 496.029 135.641 478.721 143.571 472.378C132.994 471.815 116.098 469.635 112.811 482.926" fill="#36C255"/>
<path d="M103.118 498.125C108.561 487.705 117.254 475.921 130.505 477.409C131.366 477.483 131.151 478.81 130.291 478.736C117.704 477.434 109.515 488.754 104.346 498.673C103.924 499.419 102.692 498.88 103.118 498.125Z" fill="#3F3D56"/>
<path d="M0.625 499.901H490C490.166 499.901 490.325 499.836 490.442 499.718C490.559 499.601 490.625 499.442 490.625 499.276C490.625 499.111 490.559 498.951 490.442 498.834C490.325 498.717 490.166 498.651 490 498.651H0.625C0.45924 498.651 0.300278 498.717 0.183068 498.834C0.0658569 498.951 0 499.111 0 499.276C0 499.442 0.0658569 499.601 0.183068 499.718C0.300278 499.836 0.45924 499.901 0.625 499.901Z" fill="#3F3D56"/>
<path d="M118.125 458.651H281.25C281.416 458.651 281.575 458.586 281.692 458.468C281.809 458.351 281.875 458.192 281.875 458.026C281.875 457.861 281.809 457.701 281.692 457.584C281.575 457.467 281.416 457.401 281.25 457.401H118.125C117.959 457.401 117.8 457.467 117.683 457.584C117.566 457.701 117.5 457.861 117.5 458.026C117.5 458.192 117.566 458.351 117.683 458.468C117.8 458.586 117.959 458.651 118.125 458.651Z" fill="#CACACA"/>
<path d="M197.384 353.706L198.458 340.337C198.559 340.051 198.731 339.796 198.957 339.594C199.183 339.392 199.456 339.25 199.751 339.181C200.046 339.112 200.353 339.117 200.645 339.198C200.938 339.278 201.204 339.431 201.423 339.641L214.517 351.908C218.653 351.031 222.906 350.84 227.104 351.342L227.434 338.162C227.523 337.87 227.684 337.604 227.903 337.391C228.122 337.177 228.391 337.023 228.686 336.941C228.981 336.86 229.291 336.854 229.588 336.925C229.886 336.996 230.16 337.141 230.386 337.346L240.951 349.054C248.273 352.981 254.145 359.15 257.705 366.657C261.265 374.165 262.326 382.615 260.733 390.769C259.14 398.924 254.976 406.354 248.853 411.969C242.729 417.584 234.967 421.09 226.706 421.973C218.444 422.854 210.117 421.067 202.946 416.871C195.774 412.676 190.136 406.293 186.856 398.658C183.578 391.024 182.83 382.541 184.725 374.451C186.619 366.361 191.056 359.091 197.384 353.706Z" fill="#3F3D56"/>
<path d="M192.53 407.962C178.229 407.735 160.238 457.92 194.128 458.18C211.663 458.314 242.706 461.734 242.706 461.734C242.706 461.734 266.838 425.517 256.076 402.986L192.53 407.962Z" fill="#3F3D56"/>
<path d="M223.986 434.483V460.484H211.829L202.184 434.009" fill="#3F3D56"/>
<path d="M211.829 460.959H223.986C224.111 460.959 224.232 460.909 224.321 460.819C224.41 460.731 224.459 460.61 224.459 460.484V434.483C224.459 434.357 224.41 434.237 224.321 434.148C224.232 434.059 224.111 434.009 223.986 434.009C223.86 434.009 223.739 434.059 223.651 434.148C223.562 434.237 223.512 434.357 223.512 434.483V460.011H212.161L202.63 433.847C202.587 433.729 202.499 433.632 202.384 433.579C202.271 433.526 202.14 433.521 202.022 433.564C201.904 433.607 201.808 433.695 201.755 433.809C201.702 433.922 201.696 434.053 201.739 434.171L211.384 460.647C211.417 460.738 211.478 460.817 211.558 460.873C211.637 460.929 211.732 460.959 211.829 460.959Z" fill="white"/>
<path d="M192.469 462.209C186.972 462.209 182.516 460.723 182.516 458.891C182.516 457.059 186.972 455.573 192.469 455.573C197.965 455.573 202.421 457.059 202.421 458.891C202.421 460.723 197.965 462.209 192.469 462.209Z" fill="#3F3D56"/>
<path d="M197.445 456.047C197.546 456.047 197.645 456.015 197.726 455.955C197.808 455.894 197.868 455.809 197.898 455.712C197.95 455.542 202.985 438.658 191.057 433.573C191 433.548 190.938 433.535 190.876 433.534C190.813 433.534 190.751 433.545 190.694 433.568C190.636 433.591 190.583 433.626 190.538 433.669C190.494 433.713 190.458 433.765 190.434 433.823C190.409 433.88 190.396 433.942 190.396 434.004C190.395 434.066 190.407 434.128 190.431 434.186C190.454 434.244 190.488 434.296 190.532 434.341C190.576 434.386 190.628 434.421 190.686 434.445C201.837 439.199 197.042 455.272 196.992 455.434C196.955 455.554 196.968 455.684 197.026 455.795C197.085 455.906 197.186 455.989 197.306 456.026C197.351 456.041 197.397 456.047 197.445 456.047Z" fill="white"/>
<path d="M180.562 451.716C180.629 451.62 180.678 451.519 180.736 451.421C181.253 451.44 181.771 451.459 182.289 451.479L180.562 451.716Z" fill="#3F3D56"/>
<path d="M128.915 436.692C132.796 430.49 142.291 428.766 148.103 433.209C150.726 435.214 152.494 438.113 154.735 440.538C158.505 444.59 163.532 447.251 169.004 448.089C172.812 448.66 176.841 448.35 180.357 449.918C183.769 451.439 186.342 455.78 184.485 458.921C171.393 458.439 158.301 457.956 145.209 457.474C141.443 457.335 137.543 457.163 134.174 455.471C127.637 452.187 125.034 442.894 128.915 436.692Z" fill="#3F3D56"/>
<path d="M225.568 418.726C230.945 418.776 236.274 417.712 241.221 415.602C251.549 411.119 256.283 403.553 256.479 403.234C256.544 403.126 256.564 402.998 256.534 402.877C256.505 402.755 256.428 402.65 256.322 402.585C256.216 402.519 256.088 402.499 255.966 402.527C255.844 402.556 255.738 402.631 255.672 402.737C251.93 408.051 246.778 412.213 240.796 414.754C231.495 418.774 215.613 420.789 192.768 407.552C192.714 407.521 192.654 407.5 192.593 407.492C192.531 407.484 192.468 407.487 192.408 407.503C192.347 407.519 192.291 407.547 192.241 407.585C192.191 407.622 192.15 407.67 192.118 407.724C192.087 407.778 192.067 407.837 192.059 407.899C192.051 407.961 192.054 408.024 192.071 408.084C192.087 408.144 192.115 408.201 192.153 408.251C192.191 408.3 192.238 408.341 192.293 408.372C205.703 416.143 216.775 418.726 225.568 418.726Z" fill="white"/>
<path d="M223.512 390.88C224.391 390.881 225.234 391.231 225.856 391.853C226.479 392.475 226.828 393.318 226.829 394.198C226.829 394.324 226.779 394.444 226.691 394.533C226.602 394.622 226.481 394.672 226.356 394.672C226.23 394.672 226.109 394.622 226.02 394.533C225.931 394.444 225.881 394.324 225.881 394.198C225.881 393.569 225.632 392.967 225.188 392.522C224.743 392.077 224.14 391.828 223.512 391.828C222.883 391.828 222.281 392.077 221.836 392.522C221.392 392.967 221.142 393.569 221.142 394.198C221.142 394.324 221.092 394.444 221.003 394.533C220.914 394.622 220.794 394.672 220.668 394.672C220.543 394.672 220.422 394.622 220.333 394.533C220.244 394.444 220.194 394.324 220.194 394.198C220.195 393.318 220.545 392.475 221.167 391.853C221.789 391.231 222.633 390.881 223.512 390.88Z" fill="white"/>
<path d="M223.533 399.376C225.829 399.376 227.691 397.557 227.691 395.313C227.691 393.069 225.829 391.25 223.533 391.25C221.237 391.25 219.375 393.069 219.375 395.313C219.375 397.557 221.237 399.376 223.533 399.376Z" fill="white"/>
<path d="M228.014 458.971C228.115 458.971 228.212 458.939 228.294 458.88C228.375 458.821 228.435 458.737 228.466 458.641L236.049 434.864C236.068 434.804 236.075 434.742 236.07 434.68C236.065 434.617 236.047 434.557 236.019 434.502C235.991 434.446 235.951 434.397 235.904 434.356C235.856 434.316 235.801 434.286 235.742 434.267C235.682 434.248 235.62 434.241 235.557 434.246C235.496 434.251 235.435 434.269 235.379 434.297C235.324 434.326 235.275 434.366 235.235 434.414C235.195 434.461 235.164 434.516 235.146 434.576L227.562 458.353C227.54 458.424 227.534 458.499 227.547 458.573C227.559 458.647 227.588 458.716 227.632 458.777C227.676 458.837 227.733 458.886 227.8 458.92C227.866 458.954 227.94 458.971 228.014 458.971Z" fill="white"/>
<path d="M218.061 465.526C212.564 465.526 208.109 464.041 208.109 462.209C208.109 460.376 212.564 458.891 218.061 458.891C223.558 458.891 228.014 460.376 228.014 462.209C228.014 464.041 223.558 465.526 218.061 465.526Z" fill="#3F3D56"/>
<path d="M234.176 465.052C228.679 465.052 224.223 463.567 224.223 461.734C224.223 459.902 228.679 458.417 234.176 458.417C239.673 458.417 244.128 459.902 244.128 461.734C244.128 463.567 239.673 465.052 234.176 465.052Z" fill="#3F3D56"/>
<path d="M223.275 386.888C221.181 386.888 219.483 386.236 219.483 385.43C219.483 384.624 221.181 383.972 223.275 383.972C225.369 383.972 227.066 384.624 227.066 385.43C227.066 386.236 225.369 386.888 223.275 386.888Z" fill="white"/>
<path d="M248.769 385.537C247.684 384.238 246.327 383.193 244.794 382.476C243.261 381.759 241.589 381.387 239.897 381.387C238.204 381.387 236.533 381.759 234.999 382.476C233.466 383.193 232.109 384.238 231.024 385.537C229.186 383.782 227.91 381.522 227.356 379.041C226.803 376.561 226.998 373.973 227.915 371.603C228.833 369.233 230.432 367.189 232.512 365.728C234.592 364.267 237.058 363.456 239.599 363.397C242.139 363.339 244.64 364.034 246.786 365.397C248.931 366.759 250.624 368.727 251.65 371.052C252.677 373.376 252.991 375.953 252.554 378.457C252.116 380.96 250.946 383.277 249.191 385.115C249.053 385.259 248.913 385.399 248.769 385.537Z" fill="white"/>
<path d="M214.077 385.537C212.992 384.238 211.635 383.193 210.103 382.476C208.569 381.759 206.898 381.387 205.205 381.387C203.513 381.387 201.841 381.759 200.308 382.476C198.774 383.193 197.418 384.238 196.333 385.537C194.494 383.782 193.218 381.522 192.664 379.041C192.111 376.561 192.306 373.973 193.223 371.603C194.141 369.233 195.741 367.189 197.821 365.728C199.9 364.267 202.366 363.456 204.907 363.397C207.448 363.339 209.948 364.034 212.094 365.397C214.239 366.759 215.932 368.727 216.959 371.052C217.985 373.376 218.299 375.953 217.862 378.457C217.424 380.96 216.254 383.277 214.499 385.115C214.361 385.259 214.221 385.399 214.077 385.537Z" fill="white"/>
<path d="M245.53 381.913C243.089 381.913 241.11 379.934 241.11 377.492C241.11 375.052 243.089 373.073 245.53 373.073C247.971 373.073 249.95 375.052 249.95 377.492C249.95 379.934 247.971 381.913 245.53 381.913Z" fill="#3F3D56"/>
<path d="M210.839 381.913C208.398 381.913 206.419 379.934 206.419 377.492C206.419 375.052 208.398 373.073 210.839 373.073C213.281 373.073 215.259 375.052 215.259 377.492C215.259 379.934 213.281 381.913 210.839 381.913Z" fill="#3F3D56"/>
<path d="M204.791 394.89C202.652 394.89 200.918 393.156 200.918 391.017C200.918 388.878 202.652 387.144 204.791 387.144C206.93 387.144 208.664 388.878 208.664 391.017C208.664 393.156 206.93 394.89 204.791 394.89Z" fill="#FF6584"/>
<path d="M239.791 394.89C237.652 394.89 235.918 393.156 235.918 391.017C235.918 388.878 237.652 387.144 239.791 387.144C241.93 387.144 243.664 388.878 243.664 391.017C243.664 393.156 241.93 394.89 239.791 394.89Z" fill="#FF6584"/>
<path d="M2.94 142.2V133.92L21.9 106.8H33.36V133.32H38.28V142.2H33.36V150H23.1V142.2H2.94ZM23.82 118.08L13.74 133.32H23.82V118.08ZM43.3055 127.5C43.3055 120.62 44.6255 115.2 47.2655 111.24C49.9455 107.28 54.2455 105.3 60.1655 105.3C66.0856 105.3 70.3656 107.28 73.0056 111.24C75.6856 115.2 77.0256 120.62 77.0256 127.5C77.0256 134.46 75.6856 139.92 73.0056 143.88C70.3656 147.84 66.0856 149.82 60.1655 149.82C54.2455 149.82 49.9455 147.84 47.2655 143.88C44.6255 139.92 43.3055 134.46 43.3055 127.5ZM66.9456 127.5C66.9456 123.46 66.5056 120.36 65.6256 118.2C64.7456 116 62.9256 114.9 60.1655 114.9C57.4055 114.9 55.5855 116 54.7055 118.2C53.8255 120.36 53.3855 123.46 53.3855 127.5C53.3855 130.22 53.5455 132.48 53.8655 134.28C54.1855 136.04 54.8255 137.48 55.7855 138.6C56.7855 139.68 58.2455 140.22 60.1655 140.22C62.0855 140.22 63.5256 139.68 64.4856 138.6C65.4856 137.48 66.1456 136.04 66.4656 134.28C66.7856 132.48 66.9456 130.22 66.9456 127.5ZM82.6863 142.2V133.92L101.646 106.8H113.106V133.32H118.026V142.2H113.106V150H102.846V142.2H82.6863ZM103.566 118.08L93.4863 133.32H103.566V118.08ZM4.79004 175.488H15.2051C17.0068 175.488 18.5816 175.716 19.9292 176.169C21.2769 176.609 22.3389 177.224 23.1153 178.015C23.8916 178.806 24.4629 179.7 24.8291 180.696C25.2099 181.677 25.4004 182.769 25.4004 183.97C25.4004 185.449 25.1514 186.767 24.6533 187.925C24.1553 189.082 23.5327 190.005 22.7856 190.693C22.0386 191.367 21.167 191.924 20.1709 192.363C19.1748 192.788 18.2373 193.081 17.3584 193.242C16.4941 193.389 15.6299 193.462 14.7656 193.462C13.5351 193.462 12.2827 193.345 11.0083 193.111C9.74856 192.876 8.90625 192.686 8.48144 192.539C8.07132 192.392 7.749 192.276 7.51463 192.187V206.25H4.79004V175.488ZM7.51463 178.081V190.913L8.4375 191.242C9.06738 191.462 9.93163 191.682 11.0303 191.902C12.1436 192.122 13.1836 192.231 14.1504 192.231C15.2637 192.231 16.2964 192.099 17.2486 191.836C18.2007 191.572 19.0796 191.162 19.8853 190.606C20.7056 190.049 21.3428 189.28 21.7969 188.298C22.2656 187.302 22.5 186.137 22.5 184.805C22.5 180.322 19.6875 178.081 14.0625 178.081H7.51463ZM40.6934 175.488L52.7783 206.25H49.5264L45.0439 194.824H31.4649L27.2021 206.25H26.0156L37.4854 175.488H40.6934ZM32.5635 192.187H44.0332L38.1885 177.114L32.5635 192.187ZM67.5438 193.594V191.309H79.6731V206.25H77.5194L77.0363 202.691C76.055 203.774 74.8244 204.697 73.345 205.459C71.865 206.221 70.1369 206.601 68.1594 206.601C66.7825 206.601 65.4419 206.389 64.1381 205.964C62.8344 205.539 61.604 204.887 60.4467 204.009C59.3042 203.115 58.3008 202.046 57.4365 200.801C56.5723 199.556 55.8838 198.054 55.3711 196.296C54.8731 194.524 54.624 192.612 54.624 190.561C54.624 188.159 55.0195 185.947 55.8106 183.926C56.6016 181.889 57.6416 180.22 58.9307 178.916C60.2344 177.612 61.6846 176.601 63.2813 175.884C64.8781 175.151 66.5038 174.785 68.1594 174.785C69.4188 174.785 70.62 174.902 71.7625 175.137C72.92 175.356 73.85 175.606 74.5531 175.884C75.2563 176.147 75.9156 176.462 76.5306 176.829C77.1462 177.18 77.5344 177.429 77.695 177.576C77.8712 177.707 78.0031 177.817 78.0906 177.905L78.75 183.311H77.4756C77.3 182.476 76.9775 181.641 76.5088 180.806C76.0988 180.073 75.5494 179.326 74.8606 178.564C74.1725 177.802 73.2275 177.166 72.0262 176.653C70.825 176.14 69.5506 175.884 68.2031 175.884C66.87 175.884 65.5594 176.191 64.27 176.807C62.9519 177.436 61.8018 178.294 60.8203 179.377C59.7949 180.52 58.9819 181.948 58.3814 183.662C57.7808 185.42 57.4805 187.368 57.4805 189.507C57.4805 193.755 58.5205 197.19 60.6006 199.812C62.695 202.434 65.4344 203.745 68.8181 203.745C70.0781 203.745 71.2425 203.532 72.3119 203.108C73.3812 202.683 74.2456 202.149 74.905 201.504C75.5788 200.845 76.0988 200.142 76.465 199.394C76.8456 198.647 77.0363 197.93 77.0363 197.241V193.594H67.5438ZM87.9344 175.488H107.578L108.633 181.026H107.578C107.314 180.22 107.044 179.568 106.765 179.07C106.501 178.572 106.128 178.125 105.644 177.729C105.176 177.319 104.583 177.026 103.865 176.851C103.147 176.675 102.261 176.587 101.206 176.587H90.615V189.507H105.557V191.792H90.615V203.613H108.941V206.25H87.9344V175.488ZM127.046 175.488H133.243L151.172 201.021V175.488H153.896V206.25H151.128L130.781 177.29V206.294L129.595 206.25V179.399C129.595 179.224 129.595 179.004 129.595 178.74C129.609 178.476 129.617 178.286 129.617 178.169C129.617 178.052 129.609 177.905 129.595 177.729C129.58 177.539 129.551 177.414 129.507 177.356C129.478 177.282 129.419 177.195 129.331 177.092C129.258 176.975 129.155 176.902 129.024 176.872C128.906 176.843 128.753 176.807 128.562 176.762C128.386 176.704 128.174 176.667 127.925 176.653C127.676 176.638 127.383 176.631 127.046 176.631V175.488ZM175.078 174.609C176.939 174.609 178.718 174.968 180.417 175.686C182.117 176.389 183.626 177.392 184.944 178.696C186.277 179.986 187.339 181.633 188.13 183.64C188.921 185.647 189.316 187.851 189.316 190.254C189.316 192.451 189.06 194.48 188.547 196.341C188.034 198.186 187.331 199.761 186.438 201.064C185.559 202.368 184.519 203.481 183.318 204.404C182.131 205.312 180.849 205.986 179.472 206.426C178.111 206.865 176.689 207.085 175.21 207.085C173.306 207.085 171.504 206.733 169.805 206.03C168.12 205.327 166.611 204.302 165.278 202.954C163.945 201.592 162.883 199.819 162.093 197.637C161.316 195.439 160.928 192.964 160.928 190.21C160.928 187.822 161.323 185.632 162.114 183.64C162.905 181.633 163.96 179.986 165.278 178.696C166.597 177.392 168.098 176.389 169.783 175.686C171.482 174.968 173.247 174.609 175.078 174.609ZM175.166 177.466C173.628 177.466 172.171 177.81 170.794 178.499C169.416 179.172 168.208 180.117 167.168 181.333C166.128 182.549 165.3 184.065 164.685 185.881C164.084 187.683 163.784 189.653 163.784 191.792C163.784 194.048 164.041 196.047 164.553 197.791C165.081 199.534 165.732 200.911 166.509 201.921C167.3 202.932 168.222 203.76 169.277 204.404C170.347 205.049 171.342 205.481 172.266 205.701C173.203 205.921 174.155 206.03 175.122 206.03C175.825 206.03 176.506 205.986 177.166 205.899C177.825 205.796 178.542 205.606 179.319 205.327C180.095 205.049 180.813 204.69 181.472 204.251C182.131 203.811 182.776 203.225 183.406 202.492C184.036 201.746 184.57 200.889 185.01 199.922C185.449 198.955 185.801 197.783 186.064 196.406C186.328 195.014 186.46 193.476 186.46 191.792C186.46 189.668 186.153 187.697 185.537 185.881C184.922 184.065 184.094 182.549 183.054 181.333C182.029 180.117 180.835 179.172 179.472 178.499C178.111 177.81 176.675 177.466 175.166 177.466ZM190.679 180.981L191.074 175.488H214.936L215.332 180.981H214.189L214.146 180.542C214.131 180.234 214.036 179.868 213.86 179.443C213.699 179.004 213.464 178.572 213.157 178.147C212.864 177.707 212.387 177.341 211.729 177.048C211.084 176.741 210.323 176.587 209.443 176.587H204.434V206.25H201.577V176.587H196.567C195.689 176.587 194.919 176.748 194.26 177.07C193.616 177.378 193.139 177.729 192.832 178.125C192.539 178.506 192.305 178.952 192.129 179.466C191.967 179.963 191.872 180.315 191.843 180.52C191.829 180.711 191.821 180.864 191.821 180.981H190.679ZM4.30664 231.738H23.0713L24.1699 237.276H23.1153C22.8516 236.47 22.5806 235.818 22.3023 235.32C22.0386 234.822 21.6651 234.375 21.1816 233.979C20.7129 233.569 20.1196 233.276 19.4019 233.101C18.6841 232.925 17.7979 232.837 16.7432 232.837C16.7432 232.837 13.4766 232.837 6.94338 232.837V245.757H19.1162V247.998H6.94338V262.5H4.30664V231.738ZM42.3633 230.859C44.2236 230.859 46.0034 231.218 47.7026 231.936C49.4019 232.639 50.9106 233.642 52.229 234.946C53.562 236.236 54.624 237.883 55.4151 239.89C56.2061 241.897 56.6016 244.101 56.6016 246.504C56.6016 248.701 56.3452 250.73 55.8325 252.591C55.3198 254.436 54.6167 256.011 53.7231 257.314C52.8443 258.618 51.8042 259.731 50.603 260.654C49.4165 261.562 48.1348 262.236 46.7578 262.676C45.3955 263.115 43.9746 263.335 42.4951 263.335C40.5908 263.335 38.7891 262.983 37.0899 262.28C35.4053 261.577 33.8965 260.552 32.5635 259.204C31.2305 257.842 30.1684 256.069 29.3774 253.887C28.6011 251.689 28.2129 249.214 28.2129 246.46C28.2129 244.072 28.6084 241.882 29.3994 239.89C30.1904 237.883 31.2451 236.236 32.5635 234.946C33.8818 233.642 35.3833 232.639 37.0679 231.936C38.7671 231.218 40.5323 230.859 42.3633 230.859ZM42.4512 233.716C40.9131 233.716 39.4556 234.06 38.0786 234.749C36.7017 235.422 35.4932 236.367 34.4531 237.583C33.4131 238.799 32.5854 240.315 31.9702 242.131C31.3696 243.933 31.0693 245.903 31.0693 248.042C31.0693 250.298 31.3257 252.297 31.8384 254.041C32.3658 255.784 33.0176 257.161 33.7939 258.171C34.5849 259.182 35.5078 260.01 36.5625 260.654C37.6318 261.299 38.6279 261.731 39.5508 261.951C40.4883 262.171 41.4404 262.28 42.4073 262.28C43.1104 262.28 43.7915 262.236 44.4507 262.149C45.1099 262.046 45.8276 261.856 46.604 261.577C47.3804 261.299 48.0981 260.94 48.7573 260.501C49.4165 260.061 50.0611 259.475 50.6909 258.742C51.3208 257.996 51.8555 257.139 52.2949 256.172C52.7344 255.205 53.0859 254.033 53.3496 252.656C53.6132 251.264 53.7451 249.726 53.7451 248.042C53.7451 245.918 53.4375 243.947 52.8223 242.131C52.207 240.315 51.3794 238.799 50.3394 237.583C49.3139 236.367 48.1201 235.422 46.7578 234.749C45.3955 234.06 43.9599 233.716 42.4512 233.716ZM66.7531 231.738L66.7088 246.592C66.7088 248.174 66.7238 249.412 66.7531 250.305C66.87 253.836 67.3975 256.406 68.335 258.017C69.6388 260.274 72.0262 261.401 75.4981 261.401C77.3437 261.401 78.86 261.094 80.0463 260.479C81.9363 259.512 83.1519 257.629 83.6938 254.831C84.0306 253.176 84.1994 250.43 84.1994 246.592V231.738H87.2313V246.943C87.2313 249.009 87.1219 250.818 86.9019 252.371C86.6819 253.923 86.3013 255.351 85.7594 256.655C85.2319 257.959 84.5213 259.028 83.6281 259.863C82.7488 260.684 81.6281 261.321 80.2662 261.775C78.9187 262.229 77.3294 262.456 75.4981 262.456C73.6525 262.456 72.0412 262.229 70.6637 261.775C69.3019 261.321 68.1738 260.684 67.28 259.863C66.4013 259.028 65.6906 257.959 65.1488 256.655C64.6069 255.351 64.2263 253.923 64.0063 252.371C63.7869 250.818 63.6769 249.009 63.6769 246.943V231.738H66.7531ZM94.4388 231.738H100.635L118.564 257.271V231.738H121.289V262.5H118.521L98.1738 233.54V262.544L96.9875 262.5V235.649C96.9875 235.474 96.9875 235.254 96.9875 234.99C97.0019 234.726 97.0094 234.536 97.0094 234.419C97.0094 234.302 97.0019 234.155 96.9875 233.979C96.9725 233.789 96.9431 233.664 96.8994 233.606C96.87 233.532 96.8113 233.445 96.7238 233.342C96.6506 233.225 96.5481 233.152 96.4163 233.122C96.2988 233.093 96.145 233.057 95.9544 233.012C95.7788 232.954 95.5663 232.917 95.3175 232.903C95.0681 232.888 94.7756 232.881 94.4388 232.881V231.738ZM130.781 231.738H138.999C144.375 231.738 148.359 233.057 150.952 235.693C153.559 238.33 154.863 242.139 154.863 247.119C154.863 252.056 153.53 255.857 150.864 258.523C148.198 261.174 144.551 262.5 139.922 262.5H130.781V231.738ZM133.418 232.881V257.93C133.418 259.321 133.689 260.251 134.231 260.72C134.773 261.174 135.894 261.401 137.593 261.401H139.351C141.474 261.401 143.32 261.064 144.888 260.391C146.455 259.717 147.715 258.75 148.667 257.49C149.619 256.216 150.323 254.722 150.776 253.007C151.245 251.279 151.479 249.316 151.479 247.119C151.479 245.405 151.355 243.86 151.106 242.483C150.857 241.106 150.425 239.809 149.809 238.594C149.194 237.363 148.389 236.345 147.393 235.539C146.396 234.719 145.122 234.075 143.569 233.606C142.017 233.122 140.215 232.881 138.164 232.881H133.418Z" fill="black"/>
</g>
<defs>
<clipPath id="clip0">
<rect width="790.625" height="500" fill="white"/>
</clipPath>
</defs>
</svg>
