<svg width="500" height="500" viewBox="0 0 500 500" fill="none" xmlns="http://www.w3.org/2000/svg">
<g clip-path="url(#clip0)">
<path opacity="0.1" d="M293.233 84.4975C261.595 83.114 231.458 70.2691 202.686 56.2128C173.913 42.1565 145.414 26.5815 114.534 19.1352C94.6727 14.3453 71.9565 13.6689 55.9569 27.0611C40.5537 39.9737 35.5774 62.2018 32.9035 82.8496C30.8895 98.3816 29.7065 114.725 35.2254 129.267C39.053 139.364 45.8527 147.849 50.5504 157.552C66.9117 191.199 55.3508 232.691 37.6207 265.544C29.3105 280.959 19.656 295.674 13.2425 312.067C6.82902 328.459 3.8569 347.269 9.46873 364.006C15.0366 380.608 28.2987 393.053 42.6606 401.815C71.8392 419.616 106.209 424.707 139.748 427.591C213.968 433.98 288.579 431.213 362.994 428.446C390.535 427.419 418.193 426.38 445.285 421.024C460.331 418.048 475.861 413.332 486.787 401.932C500.65 387.464 504.087 362.961 494.799 344.821C479.21 314.391 436.139 306.834 425.228 274.171C419.235 256.198 425.394 236.177 434.105 219.502C452.798 183.74 484.127 152.362 485.78 111.485C486.914 83.403 471.848 55.2905 448.56 42.0028C424.152 28.0265 390.296 29.7973 372.297 52.8494C353.75 76.6024 321.165 85.715 293.233 84.4975Z" fill="#C32950"/>
<path d="M212.863 424.578L45.5448 423.551L28.9195 374.502L87.7068 369.134L77.4608 315.356L193.735 296.399L82.3932 247.713L92.2285 244.773L271.264 281.513L261.405 365.439L247.311 411.561L212.863 424.578Z" fill="#C32950"/>
<path d="M48.1111 403.008C48.1111 403.008 58.3767 400.942 64.536 410.067C64.536 410.067 60.0192 414.543 50.3011 408.345L48.1111 403.008Z" fill="#C32950"/>
<path d="M47.0357 402.805C47.0357 402.805 40.4853 412.945 43.7116 424.234C43.7116 424.234 49.0497 421.547 49.6314 407.859L47.0357 402.805Z" fill="#C32950"/>
<path d="M41.1501 386.136C41.1501 386.136 45.2564 376.66 61.6812 389.923C61.6812 389.923 59.4912 396.294 52.2369 395.777C44.9826 395.26 43.0664 391.128 41.1501 386.136Z" fill="#C32950"/>
<path d="M40.0893 385.453C40.0893 385.453 31.5689 384.223 30.7428 408.757C30.7428 408.757 36.1444 410.165 39.9818 402.405C43.8191 394.646 42.2451 390.292 40.0893 385.453Z" fill="#C32950"/>
<path d="M35.1277 365.881C35.1277 365.881 39.9183 349.181 57.3012 361.061C57.3012 361.061 53.3319 376.384 36.907 371.563L35.1277 365.881Z" fill="#C32950"/>
<path d="M29.7896 340.917C29.7896 340.917 38.8233 324.044 54.8375 339.687C54.8375 339.687 49.2257 355.527 31.1584 346.918L29.7896 340.917Z" fill="#C32950"/>
<path d="M27.8734 317.158C27.8734 317.158 38.4126 301.656 54.2704 317.158C54.2704 317.158 44.2787 330.759 27.8734 321.118V317.158Z" fill="#C32950"/>
<path d="M26.2309 294.081C26.2309 294.081 36.9071 277.897 52.1 293.22C52.1 293.22 40.0552 307.51 26.2309 297.869V294.081Z" fill="#C32950"/>
<path d="M27.189 273.593C27.189 273.593 38.4322 252.761 52.6476 266.879C52.6476 266.879 40.6027 284.784 27.189 277.553V273.593Z" fill="#C32950"/>
<path d="M29.7896 249.662C29.7896 249.662 41.6976 229.002 55.5219 244.841C55.5219 244.841 41.4239 262.747 29.7896 253.449V249.662Z" fill="#C32950"/>
<path d="M33.7589 228.27C33.7589 228.27 47.8569 208.852 60.156 216.587C60.156 216.587 45.4665 237.21 33.143 233.423L33.7589 228.27Z" fill="#C32950"/>
<path d="M38.6864 207.991C38.6864 207.991 54.9548 184.207 64.4186 192.152C64.4186 192.152 52.4324 210.598 37.5327 212.443L38.6864 207.991Z" fill="#C32950"/>
<path d="M45.7989 184.472C45.7989 184.472 60.0387 165.054 70.4411 169.874C70.4411 169.874 58.2593 190.018 43.8876 190.534L45.7989 184.472Z" fill="#C32950"/>
<path d="M52.2369 162.471C52.2369 162.471 67.9774 143.877 74.8211 147.148C74.8211 147.148 63.4606 167.808 51.5526 166.603L52.2369 162.471Z" fill="#C32950"/>
<path d="M58.5331 142.155C58.5331 142.155 72.0836 119.94 79.4797 121.661C79.4797 121.661 71.2624 141.467 58.5331 144.412V142.155Z" fill="#C32950"/>
<path d="M65.367 114.762C65.367 114.762 77.3435 97.736 83.8157 97.7729C83.8157 97.7729 74.3616 120.524 64.8733 120.315L65.367 114.762Z" fill="#C32950"/>
<path d="M69.4146 96.5247L80.9853 61.0581C80.9853 61.0581 81.5621 93.1182 67.9432 103.104L69.4146 96.5247Z" fill="#C32950"/>
<path d="M74.1123 57.4118C74.1123 57.4118 76.0285 27.7928 74.7966 25.3824C74.7966 25.3824 83.0677 50.0086 74.0341 70.4966L74.1123 57.4118Z" fill="#C32950"/>
<path d="M34.678 365.488C34.678 365.488 22.682 356.135 14.9144 379.015C14.9144 379.015 25.5905 387.931 36.0907 371.323L34.678 365.488Z" fill="#C32950"/>
<path d="M29.4034 339.964C29.4034 339.964 14.6895 331.522 7.55249 355.41C7.55249 355.41 18.9179 365.248 30.7428 346.002L29.4034 339.964Z" fill="#C32950"/>
<path d="M27.189 318.578C27.189 318.578 16.6497 303.077 0.791931 318.578C0.791931 318.578 10.7837 332.179 27.189 322.538V318.578Z" fill="#C32950"/>
<path d="M25.8691 294.081C25.8691 294.081 15.193 277.897 0 293.22C0 293.22 12.0449 307.51 25.8691 297.869V294.081Z" fill="#C32950"/>
<path d="M27.189 274.183C27.189 274.183 19.7001 250.849 3.42188 260.883C3.42188 260.883 12.2209 281.574 26.5242 278.057L27.189 274.183Z" fill="#C32950"/>
<path d="M30.7331 249.545C30.7331 249.545 23.2881 225.804 6.78015 236.811C6.78015 236.811 16.8893 258.572 29.9998 253.21L30.7331 249.545Z" fill="#C32950"/>
<path d="M35.3477 228.387C35.3477 228.387 32.4147 202.359 18.7273 200.028C18.7273 200.028 21.631 227.477 33.5048 233.078L35.3477 228.387Z" fill="#C32950"/>
<path d="M39.0335 208.04C39.0335 208.04 37.8896 176.681 26.5731 175.587C26.5731 175.587 26.9544 199.389 37.7576 212.48L39.0335 208.04Z" fill="#C32950"/>
<path d="M46.9722 183.592C46.9722 183.592 43.5992 157.515 32.796 154.33C32.796 154.33 34.1354 179.583 45.9016 189.993L46.9722 183.592Z" fill="#C32950"/>
<path d="M53.5176 162.686C53.5176 162.686 53.4052 135.521 46.8059 131.53C46.8059 131.53 42.7144 156.126 51.6063 166.154L53.5176 162.686Z" fill="#C32950"/>
<path d="M59.0366 141.848C59.0366 141.848 58.1127 113.877 51.2788 109.935C51.2788 109.935 48.9422 132.071 58.0149 143.68L59.0366 141.848Z" fill="#C32950"/>
<path d="M66.3202 116.994C66.3202 116.994 66.2811 94.2435 61.4025 88.9062C61.4025 88.9062 56.5533 113.828 63.7734 121.569L66.3202 116.994Z" fill="#C32950"/>
<path d="M68.8426 95.4056L64.096 57.541C64.096 57.541 57.6483 88.5681 69.0675 102.243L68.8426 95.4056Z" fill="#C32950"/>
<path d="M69.7666 57.7684C69.7666 57.7684 57.5848 32.3122 57.8341 29.4837C57.8341 29.4837 59.1295 56.1636 74.4545 69.4513L69.7666 57.7684Z" fill="#C32950"/>
<path d="M71.194 50.2484C71.194 50.2484 59.6966 14.0932 54.4954 11.1663C54.4954 11.1663 70.9202 21.6686 72.1521 49.2154L71.194 50.2484Z" fill="#C32950"/>
<path d="M64.8146 120.53L64.0276 120.229C73.731 80.427 76.1507 55.0507 70.8468 48.6866L71.409 47.9365C77.0355 54.651 74.7526 79.7506 64.8146 120.53Z" fill="#444053"/>
<path d="M38.0949 213.722L36.9315 213.199C37.963 209.553 39.0726 205.851 40.236 202.205C50.3647 170.452 58.9878 140.913 64.5165 118.236L65.5284 117.621C59.9899 140.341 51.5184 171.012 41.3799 202.808C40.2214 206.386 39.1166 210.069 38.0949 213.722Z" fill="#444053"/>
<path d="M62.5758 432.793C62.4193 432.578 46.6935 410.301 35.7289 372.27C29.3044 350.005 25.7289 326.598 25.1359 302.923C24.3831 273.329 29.3203 240.285 37.7772 210.266L38.6962 211.619C19.7098 278.992 27.2525 336.723 37.259 371.489C48.1062 409.175 63.6561 431.207 63.8076 431.428L62.5758 432.793Z" fill="#444053"/>
<path d="M308.323 385.496C308.323 385.496 297.241 402.51 306.04 428.231L217.561 476.499L209.07 478.737L205.159 457.216L207.774 430.057V415.214L308.323 385.496Z" fill="#D5D6DB"/>
<path d="M28.9195 374.502L151.382 346.42L313.651 378.935L212.863 424.578L28.9195 374.502Z" fill="#C32950"/>
<path d="M28.9195 374.502L151.382 346.42L313.651 378.935L212.863 424.578L28.9195 374.502Z" fill="#C32950"/>
<path d="M28.9195 374.496C28.9195 374.496 17.4661 401.791 30.6646 427.001L212.267 476.499C212.267 476.499 200.994 454.757 212.849 424.578L28.9195 374.496Z" fill="#C32950"/>
<path opacity="0.1" d="M28.9195 374.496C28.9195 374.496 17.4661 401.791 30.6646 427.001L212.267 476.499C212.267 476.499 200.994 454.757 212.849 424.578L28.9195 374.496Z" fill="black"/>
<path opacity="0.1" d="M34.3309 383.959C34.3309 383.959 27.7854 403.93 34.3309 416.855Z" fill="black"/>
<path d="M212.267 476.499L313.651 422.082C313.651 422.082 319.322 423.619 315.655 428.845C311.989 434.072 214.222 481.726 214.222 481.726L30.6646 427.001L212.267 476.499Z" fill="#C32950"/>
<path opacity="0.1" d="M212.267 476.499L313.651 422.082C313.651 422.082 319.322 423.619 315.655 428.845C311.989 434.072 214.222 481.726 214.222 481.726L30.6646 427.001L212.267 476.499Z" fill="black"/>
<path opacity="0.1" d="M203.957 430.075C203.957 430.075 194.18 444.833 203.957 466.968Z" fill="black"/>
<path opacity="0.1" d="M251.289 429.826L207.436 448.229L207.591 448.812L251.444 430.409L251.289 429.826Z" fill="black"/>
<path opacity="0.1" d="M260.073 427.994L207.422 453.178L207.596 453.753L260.246 428.569L260.073 427.994Z" fill="black"/>
<path opacity="0.1" d="M268.139 427.906L207.716 459.016L207.901 459.585L268.324 428.475L268.139 427.906Z" fill="black"/>
<path opacity="0.1" d="M276.911 425.242L208.421 464.159L208.623 464.719L277.112 425.803L276.911 425.242Z" fill="black"/>
<path opacity="0.1" d="M284.281 425.255L208.964 466.665L209.159 467.228L284.477 425.818L284.281 425.255Z" fill="black"/>
<path opacity="0.1" d="M300.4 421.811L210.099 470.87L210.293 471.435L300.594 422.376L300.4 421.811Z" fill="black"/>
<path opacity="0.3" d="M74.4153 377.503L160.45 354.752L212.863 367.357L142.363 395.949L74.4153 377.503Z" fill="white"/>
<path d="M313.651 378.935C313.651 378.935 318.1 381.192 315.489 384.678C312.879 388.165 212.849 424.578 212.849 424.578L313.651 378.935Z" fill="#C32950"/>
<path d="M356.859 326.356C356.859 326.356 345.782 343.364 354.581 369.091L266.102 417.359L257.611 419.61L253.7 398.089L256.355 370.936V356.074L356.859 326.356Z" fill="#D5D6DB"/>
<path d="M77.4608 315.356L199.919 287.28L362.193 319.796L261.405 365.439L77.4608 315.356Z" fill="#3A3768"/>
<path d="M77.4413 315.356C77.4413 315.356 65.983 342.651 79.1815 367.861L260.784 417.359C260.784 417.359 249.516 395.599 261.385 365.432L77.4413 315.356Z" fill="#3A3768"/>
<path opacity="0.1" d="M77.4413 315.356C77.4413 315.356 65.983 342.651 79.1815 367.861L260.784 417.359C260.784 417.359 249.516 395.599 261.385 365.432L203.957 349.796L77.4413 315.356Z" fill="black"/>
<path opacity="0.1" d="M82.8673 324.819C82.8673 324.819 76.3266 344.785 82.8673 357.716Z" fill="black"/>
<path d="M260.803 417.359L362.193 362.942C362.193 362.942 367.858 364.479 364.192 369.706C360.526 374.932 262.759 422.586 262.759 422.586L79.201 367.861L260.803 417.359Z" fill="#3A3768"/>
<path opacity="0.1" d="M260.803 417.359L362.193 362.942C362.193 362.942 367.858 364.479 364.192 369.706C360.526 374.932 262.759 422.586 262.759 422.586L79.201 367.861L260.803 417.359Z" fill="black"/>
<path opacity="0.1" d="M252.493 370.936C252.493 370.936 242.716 385.693 252.493 407.829Z" fill="black"/>
<path opacity="0.1" d="M299.829 370.693L255.976 389.096L256.131 389.679L299.984 371.276L299.829 370.693Z" fill="black"/>
<path opacity="0.1" d="M308.619 368.858L255.969 394.042L256.142 394.617L308.793 369.433L308.619 368.858Z" fill="black"/>
<path opacity="0.1" d="M316.678 368.762L256.255 399.871L256.441 400.44L316.864 369.331L316.678 368.762Z" fill="black"/>
<path opacity="0.1" d="M325.456 366.099L256.966 405.015L257.168 405.576L325.657 366.659L325.456 366.099Z" fill="black"/>
<path opacity="0.1" d="M332.819 366.104L257.501 407.514L257.697 408.077L333.014 366.667L332.819 366.104Z" fill="black"/>
<path opacity="0.1" d="M348.942 362.66L258.641 411.719L258.835 412.284L349.136 363.225L348.942 362.66Z" fill="black"/>
<path opacity="0.45" d="M122.957 318.363L208.992 295.612L261.405 308.217L190.905 336.81L122.957 318.363Z" fill="white"/>
<path d="M362.193 319.796C362.193 319.796 366.636 322.052 364.031 325.533C361.425 329.013 261.405 365.432 261.405 365.432L362.193 319.796Z" fill="#3A3768"/>
<path d="M361.454 258.701C361.454 258.701 350.372 289.242 359.172 314.963L270.692 349.704L262.221 351.96L258.31 330.439L260.925 303.28V288.418L361.454 258.701Z" fill="#D5D6DB"/>
<path d="M82.0705 247.706L204.533 219.625L366.807 252.14L266.014 297.783L82.0705 247.706Z" fill="#C32950"/>
<path d="M82.0705 247.7C82.0705 247.7 70.5975 274.995 83.7961 300.205L265.398 349.704C265.398 349.704 254.126 327.943 265.995 297.783L82.0705 247.7Z" fill="#C32950"/>
<path opacity="0.1" d="M82.0705 247.7C82.0705 247.7 70.5975 274.995 83.7961 300.205L265.398 349.704C265.398 349.704 254.126 327.943 265.995 297.783L82.0705 247.7Z" fill="black"/>
<path opacity="0.1" d="M87.4819 257.163C87.4819 257.163 80.9364 277.135 87.4819 290.06Z" fill="black"/>
<path d="M265.418 349.704L366.802 308.814C366.802 308.814 372.473 310.351 368.806 315.578C365.14 320.804 267.373 354.93 267.373 354.93L83.8157 300.205L265.418 349.704Z" fill="#C32950"/>
<path opacity="0.1" d="M265.418 349.704L366.802 308.814C366.802 308.814 372.473 310.351 368.806 315.578C365.14 320.804 267.373 354.93 267.373 354.93L83.8157 300.205L265.418 349.704Z" fill="black"/>
<path opacity="0.1" d="M257.108 303.28C257.108 303.28 247.331 318.037 257.108 340.173Z" fill="black"/>
<path opacity="0.1" d="M304.445 303.036L260.592 321.439L260.747 322.022L304.6 303.619L304.445 303.036Z" fill="black"/>
<path opacity="0.1" d="M313.232 301.204L260.581 326.388L260.755 326.963L313.405 301.779L313.232 301.204Z" fill="black"/>
<path opacity="0.1" d="M321.287 301.111L260.864 332.22L261.049 332.789L321.472 301.68L321.287 301.111Z" fill="black"/>
<path opacity="0.1" d="M330.071 298.442L261.581 337.359L261.782 337.919L330.272 299.003L330.071 298.442Z" fill="black"/>
<path opacity="0.1" d="M337.436 298.453L262.119 339.863L262.315 340.426L337.632 299.017L337.436 298.453Z" fill="black"/>
<path opacity="0.1" d="M353.557 295.014L263.257 344.073L263.451 344.637L353.751 295.578L353.557 295.014Z" fill="black"/>
<path opacity="0.3" d="M127.566 250.707L213.601 227.956L266.014 240.562L195.514 269.154L127.566 250.707Z" fill="white"/>
<path d="M366.802 252.14C366.802 252.14 371.251 254.396 368.64 257.883C366.03 261.369 266.014 297.783 266.014 297.783L366.802 252.14Z" fill="#C32950"/>
<path d="M151.744 65.4853C151.744 65.4853 133.168 64.0772 135.339 80.47C135.339 80.47 134.904 83.3661 136.991 84.682C136.991 84.682 137.025 83.4522 138.898 83.8765C139.566 84.0208 140.245 84.0621 140.921 83.9995C141.833 83.921 142.699 83.4721 143.39 82.7205V82.7205C143.39 82.7205 148.616 80.0027 150.649 69.2545C150.649 69.2545 152.155 66.9118 152.116 66.3092L148.968 67.994C148.968 67.994 150.038 70.8409 149.197 73.2082C149.197 73.2082 149.095 68.0985 148.489 68.2153C148.366 68.2153 146.861 69.2053 146.861 69.2053C146.861 69.2053 148.704 74.1674 147.31 77.7707C147.31 77.7707 147.838 71.6587 146.284 69.5619L144.074 71.1852C144.074 71.1852 146.23 76.3072 144.769 80.4885C144.769 80.4885 145.145 74.0752 143.61 71.5788L141.606 73.5464C141.606 73.5464 143.634 78.5946 142.398 82.0626C142.398 82.0626 142.236 74.5979 141.176 74.0322C141.176 74.0322 139.421 75.9752 139.157 76.7746C139.157 76.7746 140.545 80.4639 139.68 82.3762C139.68 82.3762 139.157 77.4017 138.702 77.3771C138.702 77.3771 136.957 80.6729 136.776 82.9111C136.861 80.8245 137.378 78.8021 138.277 77.0451C137.271 77.2845 136.343 77.8895 135.608 78.7852C135.608 78.7852 135.877 76.4548 138.712 76.2519C138.712 76.2519 140.154 73.7493 140.54 73.6017C140.54 73.6017 137.72 73.3004 136.013 74.2535C136.013 74.2535 137.519 72.0584 141.053 73.0237L143.009 70.9946C143.009 70.9946 139.303 70.3797 137.729 71.0623C137.729 71.0623 139.543 69.1192 143.542 70.5335L145.697 68.9163C145.697 68.9163 142.535 68.0616 140.653 68.3691C140.653 68.3691 142.637 67.0225 146.328 68.4797L147.863 67.6128C147.863 67.6128 145.551 67.0409 144.871 66.9487C144.192 66.8564 144.157 66.6228 144.157 66.6228C145.625 66.3196 147.131 66.5324 148.508 67.2377C148.508 67.2377 151.808 65.7435 151.744 65.4853Z" fill="#C32950"/>
<path opacity="0.1" d="M413.075 132.864C413.075 132.864 394.5 131.456 396.67 147.849C396.67 147.849 396.235 150.745 398.322 152.061C398.322 152.061 398.357 150.831 400.229 151.256C400.897 151.397 401.576 151.438 402.253 151.379C403.156 151.295 404.013 150.846 404.697 150.1V150.1C404.697 150.1 409.927 147.382 411.956 136.634C411.956 136.634 413.462 134.291 413.422 133.688L410.284 135.373C410.284 135.373 411.355 138.22 410.514 140.587C410.514 140.587 410.411 135.478 409.81 135.594C409.688 135.594 408.177 136.584 408.177 136.584C408.177 136.584 410.02 141.547 408.632 145.15C408.632 145.15 409.16 139.038 407.6 136.941L405.391 138.564C405.391 138.564 407.547 143.686 406.085 147.868C406.085 147.868 406.461 141.454 404.926 138.958L402.927 140.926C402.927 140.926 404.951 145.974 403.714 149.442C403.714 149.442 403.553 141.977 402.492 141.411C402.492 141.411 400.742 143.354 400.473 144.154C400.473 144.154 401.861 147.843 401.001 149.755C401.001 149.755 400.473 144.781 400.023 144.756C400.023 144.756 398.278 148.052 398.097 150.29C398.182 148.203 398.701 146.18 399.603 144.424C398.596 144.664 397.667 145.269 396.929 146.164C396.929 146.164 397.203 143.834 400.033 143.631C400.033 143.631 401.475 141.128 401.861 140.975C401.861 140.975 399.046 140.68 397.335 141.633C397.335 141.633 398.84 139.438 402.375 140.403L404.33 138.374C404.33 138.374 400.62 137.759 399.051 138.441C399.051 138.441 400.859 136.498 404.863 137.913L407.014 136.295C407.014 136.295 403.851 135.441 401.969 135.748C401.969 135.748 403.954 134.402 407.644 135.859L409.184 134.992C409.184 134.992 406.867 134.42 406.188 134.328C405.508 134.236 405.474 134.002 405.474 134.002C406.941 133.695 408.448 133.908 409.825 134.617C409.825 134.617 413.134 133.123 413.075 132.864Z" fill="#C32950"/>
<path opacity="0.1" d="M183.03 166.757C183.03 166.757 174.934 145.648 164.63 156.052C164.63 156.052 162.406 156.986 162.513 159.919C162.513 159.919 163.369 159.36 163.98 161.623C164.208 162.422 164.51 163.186 164.879 163.898C165.379 164.862 166.115 165.596 166.976 165.988C166.976 165.988 171.41 170.403 179.862 167.39C179.862 167.39 182.223 167.901 182.609 167.544L179.911 164.918C179.911 164.918 178.444 167.482 176.401 167.71C176.401 167.71 179.901 165.109 179.525 164.506C179.446 164.383 178.058 163.197 178.058 163.197C178.058 163.197 175.511 167.642 172.334 167.87C172.334 167.87 176.831 165.472 177.525 162.736L175.326 161.1C175.326 161.1 172.818 165.97 169.205 166.4C169.205 166.4 173.839 163.689 174.822 160.786L172.485 159.557C172.485 159.557 169.968 164.242 166.957 164.58C166.957 164.58 172.06 160.762 171.933 159.317C171.933 159.317 169.728 158.345 169.044 158.437C169.044 158.437 167.177 161.752 165.417 161.752C165.417 161.752 168.609 158.745 168.413 158.259C168.413 158.259 165.275 157.952 163.623 158.874C165.112 157.943 166.768 157.519 168.428 157.644C167.77 156.657 166.896 155.932 165.915 155.56C165.915 155.56 167.665 154.724 169.186 157.73C169.186 157.73 171.63 158.093 171.918 158.444C171.918 158.444 170.75 155.209 169.259 153.801C169.259 153.801 171.518 154.373 172.549 158.72L174.92 159.901C174.92 159.901 173.556 155.523 172.3 154.139C172.3 154.139 174.529 155.179 175.502 160.288L177.672 161.862C177.672 161.862 176.728 157.97 175.594 156.058C175.594 156.058 177.496 157.583 178.283 162.342L179.637 163.609C179.637 163.609 178.904 160.786 178.659 159.999C178.415 159.212 178.537 159.052 178.537 159.052C179.467 160.512 180.056 162.269 180.238 164.125C180.238 164.125 182.854 166.941 183.03 166.757Z" fill="#C32950"/>
<path opacity="0.1" d="M370.635 103.042C370.635 103.042 362.544 81.9334 352.235 92.3373C352.235 92.3373 350.016 93.2719 350.118 96.2049C350.118 96.2049 350.979 95.6515 351.585 97.9082C351.813 98.7113 352.116 99.4772 352.489 100.189C352.987 101.152 353.722 101.884 354.581 102.274V102.274C354.581 102.274 359.02 106.689 367.467 103.682C367.467 103.682 369.828 104.186 370.219 103.83L367.535 101.198C367.535 101.198 366.069 103.768 364.031 103.996C364.031 103.996 367.526 101.388 367.149 100.786C367.071 100.663 365.683 99.4761 365.683 99.4761C365.683 99.4761 363.141 103.922 359.959 104.149C359.959 104.149 364.461 101.751 365.155 99.0211L362.921 97.3978C362.921 97.3978 360.418 102.262 356.801 102.698C356.801 102.698 361.435 99.9803 362.422 97.0781L360.081 95.8483C360.081 95.8483 357.563 100.54 354.557 100.872C354.557 100.872 359.655 97.0535 359.528 95.6146C359.528 95.6146 357.329 94.637 356.644 94.7354C356.644 94.7354 354.777 98.0434 353.012 98.0434C353.012 98.0434 356.209 95.0367 356.014 94.5509C356.014 94.5509 352.875 94.2435 351.218 95.1658C352.707 94.2347 354.364 93.8107 356.023 93.936C355.367 92.9478 354.496 92.2231 353.516 91.8516C353.516 91.8516 355.266 91.0153 356.786 94.0221C356.786 94.0221 359.23 94.391 359.519 94.7415C359.519 94.7415 358.35 91.5011 356.854 90.093C356.854 90.093 359.113 90.671 360.144 95.0428L362.52 96.2234C362.52 96.2234 361.156 91.8393 359.9 90.4558C359.9 90.4558 362.129 91.4949 363.097 96.6046L365.272 98.1787C365.272 98.1787 364.324 94.2926 363.19 92.3742C363.19 92.3742 365.096 93.8991 365.878 98.6583L367.232 99.925C367.232 99.925 366.504 97.1027 366.255 96.3156C366.005 95.5286 366.133 95.3748 366.133 95.3748C367.06 96.8361 367.647 98.592 367.829 100.448C367.829 100.448 370.483 103.239 370.635 103.042Z" fill="#C32950"/>
<path opacity="0.1" d="M396.489 207.456C396.489 207.456 388.399 186.341 378.075 196.745C378.075 196.745 375.855 197.679 375.958 200.612C375.958 200.612 376.818 200.059 377.425 202.316C377.651 203.119 377.953 203.884 378.324 204.597C378.822 205.56 379.557 206.292 380.416 206.681C380.416 206.681 384.855 211.102 393.307 208.089C393.307 208.089 395.663 208.6 396.054 208.237L393.356 205.611C393.356 205.611 391.889 208.182 389.846 208.409C389.846 208.409 393.341 205.802 392.965 205.199C392.886 205.076 391.498 203.89 391.498 203.89C391.498 203.89 388.956 208.335 385.774 208.569C385.774 208.569 390.276 206.165 390.97 203.435L388.766 201.799C388.766 201.799 386.263 206.669 382.645 207.099C382.645 207.099 387.28 204.382 388.267 201.479L385.925 200.25C385.925 200.25 383.408 204.935 380.402 205.273C380.402 205.273 385.505 201.455 385.378 200.01C385.378 200.01 383.173 199.032 382.489 199.131C382.489 199.131 380.622 202.439 378.857 202.439C378.857 202.439 382.054 199.432 381.858 198.946C381.858 198.946 378.72 198.639 377.063 199.561C378.554 198.63 380.212 198.207 381.873 198.331C381.216 197.341 380.342 196.617 379.36 196.247C379.36 196.247 381.11 195.404 382.631 198.417C382.631 198.417 385.075 198.78 385.363 199.131C385.363 199.131 384.195 195.896 382.704 194.482C382.704 194.482 384.962 195.06 385.994 199.432L388.365 200.612C388.365 200.612 387.001 196.228 385.745 194.851C385.745 194.851 387.974 195.884 388.942 201L391.117 202.568C391.117 202.568 390.169 198.682 389.034 196.763C389.034 196.763 390.941 198.288 391.728 203.054L393.082 204.283C393.082 204.283 392.349 201.461 392.104 200.674C391.86 199.887 391.982 199.733 391.982 199.733C392.912 201.193 393.499 202.949 393.678 204.806C393.678 204.806 396.338 207.641 396.489 207.456Z" fill="#C32950"/>
<path opacity="0.1" d="M98.7202 482.168C104.927 482.168 109.959 481.461 109.959 480.588C109.959 479.715 104.927 479.008 98.7202 479.008C92.5135 479.008 87.4819 479.715 87.4819 480.588C87.4819 481.461 92.5135 482.168 98.7202 482.168Z" fill="#C32950"/>
<path opacity="0.1" d="M25.0479 455.31C31.2546 455.31 36.2862 454.603 36.2862 453.73C36.2862 452.857 31.2546 452.15 25.0479 452.15C18.8411 452.15 13.8096 452.857 13.8096 453.73C13.8096 454.603 18.8411 455.31 25.0479 455.31Z" fill="#C32950"/>
<path opacity="0.1" d="M154.878 500.006C161.084 500.006 166.116 499.299 166.116 498.426C166.116 497.553 161.084 496.846 154.878 496.846C148.671 496.846 143.639 497.553 143.639 498.426C143.639 499.299 148.671 500.006 154.878 500.006Z" fill="#C32950"/>
<path opacity="0.1" d="M442.655 461.152C448.862 461.152 453.893 460.444 453.893 459.571C453.893 458.699 448.862 457.991 442.655 457.991C436.448 457.991 431.416 458.699 431.416 459.571C431.416 460.444 436.448 461.152 442.655 461.152Z" fill="#C32950"/>
<path opacity="0.1" d="M349.136 453.484C355.342 453.484 360.374 452.776 360.374 451.904C360.374 451.031 355.342 450.323 349.136 450.323C342.929 450.323 337.897 451.031 337.897 451.904C337.897 452.776 342.929 453.484 349.136 453.484Z" fill="#C32950"/>
<path opacity="0.1" d="M288.637 490.881C295.978 490.881 301.929 489.596 301.929 488.01C301.929 486.424 295.978 485.138 288.637 485.138C281.297 485.138 275.346 486.424 275.346 488.01C275.346 489.596 281.297 490.881 288.637 490.881Z" fill="#C32950"/>
<path d="M294.567 459.147C294.567 459.147 276.06 471.174 285.621 485.341C285.621 485.341 286.521 488.416 289.121 488.2C289.121 488.2 288.603 487.008 290.588 486.054C291.294 485.711 291.965 485.263 292.587 484.72C293.428 483.989 294.056 482.934 294.376 481.713V481.713C294.376 481.713 298.16 475.343 295.227 463.556C295.227 463.556 295.608 460.223 295.276 459.682L293.027 463.562C293.027 463.562 295.349 465.523 295.618 468.407C295.618 468.407 293.174 463.568 292.685 464.103C292.578 464.214 291.571 466.224 291.571 466.224C291.571 466.224 295.599 469.662 295.897 474.126C295.897 474.126 293.629 467.872 291.179 466.981L289.776 470.129C289.776 470.129 294.176 473.498 294.665 478.565C294.665 478.565 292.108 472.14 289.498 470.842L288.466 474.169C288.466 474.169 292.71 477.563 293.101 481.781C293.101 481.781 289.552 474.728 288.276 474.95C288.276 474.95 287.474 478.073 287.582 479.039C287.582 479.039 290.578 481.56 290.632 484.038C290.632 484.038 287.865 479.641 287.44 479.93C287.44 479.93 287.264 484.351 288.114 486.651C288.114 486.651 286.648 483.367 286.887 479.93C286.03 480.884 285.413 482.132 285.113 483.521C285.113 483.521 284.316 481.092 286.941 478.854C286.941 478.854 287.191 475.417 287.494 474.993C287.494 474.993 284.653 476.739 283.446 478.879C283.446 478.879 283.891 475.687 287.743 474.101L288.721 470.731C288.721 470.731 284.869 472.785 283.681 474.593C283.681 474.593 284.536 471.426 289.024 469.908L290.353 466.833C290.353 466.833 286.931 468.284 285.26 469.908C285.26 469.908 286.555 467.184 290.764 465.929L291.844 463.992C291.844 463.992 289.361 465.105 288.667 465.505C287.973 465.905 287.836 465.708 287.836 465.708C289.105 464.358 290.646 463.477 292.289 463.162C292.289 463.162 294.738 459.356 294.567 459.147Z" fill="#C32950"/>
<path d="M349.498 231.99C346.301 221.063 328.702 220.037 321.067 222.822C315.641 224.808 304.202 227.046 298.092 228.172L297.696 227.698C298.488 227.403 298.507 226.677 298.409 225.601C298.352 224.183 298.369 222.762 298.458 221.346C302.203 222.81 305.537 219.348 305.537 219.348C309.936 216.888 308.753 206.362 309.594 203.484C310.225 201.332 310.904 188.653 311.207 182.332H311.271L311.305 180.211C311.349 179.294 311.368 178.759 311.368 178.759C311.368 178.759 311.799 163.301 312.639 160.171C313.422 157.294 314.057 142.795 314.155 140.495C314.155 140.298 314.155 140.194 314.155 140.194L314.091 138.853C314.135 137.876 314.155 136.787 314.15 135.644C314.15 130.386 313.715 123.764 313.661 122.694C313.661 122.54 313.661 122.356 313.661 122.135C313.695 119.89 313.47 108.65 305.869 104.401C303.068 102.827 299.7 100.952 296.439 99.1256C295.599 89.9946 293.677 80.9127 293.844 71.7141C293.844 70.3306 293.941 68.9471 294.049 67.5697C294.049 67.9694 294.015 68.3752 294.01 68.7995C294.01 69.6911 294.01 70.5888 294.01 71.4804C294.298 59.9759 297.754 48.4099 297.432 37.1514C297.402 38.252 297.339 39.3588 297.256 40.4656C297.424 36.6575 297.108 32.84 296.317 29.1579C296.024 27.8604 295.628 26.52 294.782 25.653C293.983 24.9548 293.066 24.4981 292.103 24.3187C289.79 23.5739 287.44 23.0234 285.069 22.6708C284.709 21.2835 284.174 19.9777 283.485 18.8032C278.528 10.244 271.186 2.20129 262.504 0.356638C258.149 -0.565689 253.138 0.202916 250.176 4.11973C249.867 4.46382 249.576 4.83358 249.306 5.22653C247.712 7.61843 247.028 10.7605 245.395 13.1463C245.288 13.3061 245.165 13.4537 245.048 13.6074C241.851 17.2045 236.87 17.9547 233.316 21.1828C232.69 21.7623 232.103 22.406 231.561 23.1074C230.129 24.8923 228.845 26.8557 227.729 28.9672C226.13 31.7957 224.488 34.741 223.979 38.1167C222.958 44.8805 226.619 51.2937 227.299 58.1005C228.814 73.3312 215.415 86.8464 217.952 101.874C218.629 105.566 220.124 108.941 222.264 111.608C217.038 117.56 212.589 123.334 212.589 123.334V123.678H211.763L211.846 124.908H211.763L212.218 131.579L211.763 141.294C211.763 141.294 211.763 141.399 211.763 141.596V141.645V141.909C211.763 141.909 211.763 142.014 211.763 142.211H211.793C211.944 145.771 212.546 158.573 213.259 161.272C214.1 164.402 214.525 179.86 214.525 179.86C214.525 179.86 215.454 201.707 216.305 204.597C217.155 207.487 215.948 217.983 220.362 220.461C221.653 221.707 223.182 222.504 224.796 222.773C224.571 225.073 224.713 226.739 225.441 227.262C225.753 227.492 226.106 227.619 226.468 227.63C226.168 228.189 225.902 228.775 225.671 229.383C223.919 229.153 222.197 228.642 220.548 227.864C215.806 225.405 200.07 219.871 195.5 223.763C190.929 227.655 179.93 231.184 185.009 246.852C190.088 262.519 192.454 262.913 192.454 262.913C194.018 264.34 195.389 266.074 196.517 268.047C198.042 270.931 212.252 277.528 215.806 277.528C217.317 277.499 218.827 277.594 220.328 277.811C220.328 277.811 216.471 282.066 216.984 284.538C217.497 287.01 215.811 306.797 215.811 306.797C215.811 306.797 219.722 311.753 221.393 305.254L221.452 305.352C221.765 305.887 223.456 308.303 226.639 305.254C227.941 304.011 229.324 302.908 230.774 301.958L246.182 299.215C247.789 299.089 249.399 299.075 251.007 299.172C253.451 299.424 255.851 297.604 257.362 296.196C260.554 297.721 264.142 299.388 265.848 299.996C269.309 301.226 285.216 306.594 288.936 304.915C289.709 304.529 290.397 303.913 290.94 303.12L294.489 303.261L292.827 303.679C292.827 303.679 296.063 303.747 300.462 303.821L300.277 303.956L305.796 303.895C313.871 303.987 322.944 304.018 324.137 303.679C326.004 303.157 335.707 303.526 338.567 303.679H339.364C339.364 303.679 350.025 301.005 345.626 287.397C342.243 276.944 331.846 273.907 327.231 273.07C328.531 272.745 329.651 272.492 330.394 272.345C333.615 271.73 339.872 268.041 340.381 266.78C340.889 265.52 346.134 261.861 347.488 259.777C348.842 257.692 352.709 242.916 349.498 231.99ZM261.189 262.568L260.666 262.783L260.314 262.931L259.64 263.767C259.102 263.312 258.525 262.833 257.924 262.341C258.985 262.421 260.075 262.501 261.189 262.568Z" fill="url(#paint0_linear)"/>
<path d="M292.358 197.735C292.358 197.735 299.837 222.33 304.09 219.871C308.342 217.411 307.189 206.958 308 204.093C308.812 201.227 309.711 179.497 309.711 179.497C309.711 179.497 310.122 164.125 310.933 161.014C311.686 158.155 312.297 143.736 312.4 141.467C312.4 141.27 312.4 141.165 312.4 141.165L311.593 123.334L307.027 121.901L296.439 126.82L294.973 137.353L294.401 141.467L294.156 143.219L292.358 197.735Z" fill="#BE6F72"/>
<path opacity="0.1" d="M294.821 193.615C294.821 193.615 301.958 200.963 304.109 201.609C306.26 202.254 307.58 207.985 307.58 207.985" fill="black"/>
<path d="M233.868 198.811C233.868 198.811 226.389 223.406 222.136 220.947C217.884 218.487 219.037 208.034 218.226 205.169C217.414 202.303 216.515 180.573 216.515 180.573C216.515 180.573 216.104 165.201 215.293 162.09C214.54 159.231 213.929 144.812 213.826 142.543C213.826 142.346 213.826 142.241 213.826 142.241L214.638 124.41L219.203 122.977L229.792 127.896L231.258 138.429L231.83 142.543L232.074 144.295L233.868 198.811Z" fill="#BE6F72"/>
<path d="M282.571 67.1885H265.877V99.9188H282.571V67.1885Z" fill="#3E373A"/>
<path opacity="0.1" d="M282.571 67.1885H265.877V99.9188H282.571V67.1885Z" fill="black"/>
<path d="M230.935 223.308C230.935 223.308 225.231 231.197 227.347 232.629C229.464 234.062 243.156 260.914 243.156 260.914C243.156 260.914 288.129 267.881 296.61 257.428C305.092 246.975 304.921 228.301 304.921 228.301C304.921 228.301 298.106 230.145 297.363 229.143C296.62 228.141 292.538 223.308 292.538 223.308C292.538 223.308 234.846 218.905 230.935 223.308Z" fill="#4B4B5B"/>
<path opacity="0.02" d="M230.935 223.308C230.935 223.308 225.231 231.197 227.347 232.629C229.464 234.062 243.156 260.914 243.156 260.914C243.156 260.914 288.129 267.881 296.61 257.428C305.092 246.975 304.921 228.301 304.921 228.301C304.921 228.301 298.106 230.145 297.363 229.143C296.62 228.141 292.538 223.308 292.538 223.308C292.538 223.308 234.846 218.905 230.935 223.308Z" fill="black"/>
<path d="M311.896 123.592L297.231 138.349L292.798 138.755L291.17 138.903L263.829 141.424L235.477 138.816L231.258 138.429L225.881 137.937L214.638 124.41C214.638 124.41 222.596 113.686 229.567 106.449C232.314 103.59 234.91 101.278 236.801 100.368L237.124 100.226C238.314 99.6426 239.376 98.711 240.223 97.5085C245.728 90.3697 250.816 72.7532 250.816 72.7532C250.816 72.7532 275.097 56.9753 272.164 77.6723C269.231 98.3693 283.079 93.2535 283.079 93.2535L287.645 95.8729L289.449 96.912L294.049 99.5622L304.427 105.551C312.571 110.267 311.896 123.592 311.896 123.592Z" fill="#BE6F72"/>
<path opacity="0.1" d="M262.69 89.6072C274.75 89.6072 284.526 77.3098 284.526 62.1403C284.526 46.9707 274.75 34.6734 262.69 34.6734C250.63 34.6734 240.854 46.9707 240.854 62.1403C240.854 77.3098 250.63 89.6072 262.69 89.6072Z" fill="black"/>
<path opacity="0.1" d="M311.93 143.158H213.826C213.826 142.961 213.826 142.856 213.826 142.856L214.638 125.025C214.638 125.025 222.596 114.301 229.567 107.064L291.16 103.989L294.024 100.189L304.402 106.178C312.551 110.888 311.896 124.213 311.896 124.213C311.896 124.213 313.011 139.653 311.93 143.158Z" fill="black"/>
<path d="M311.93 142.543H213.826C213.826 142.346 213.826 142.241 213.826 142.241L214.638 124.41C214.638 124.41 222.596 113.686 229.567 106.449L291.16 103.375L294.024 99.5745L304.402 105.564C312.551 110.274 311.896 123.598 311.896 123.598C311.896 123.598 313.011 139.038 311.93 142.543Z" fill="#E7C7CA"/>
<path opacity="0.1" d="M246.964 92.5402C246.964 92.5402 262.441 117.345 283.055 92.0299C303.669 66.715 285.338 148.495 285.338 148.495L240.854 155.136L246.964 92.5402Z" fill="black"/>
<path d="M246.964 93.77C246.964 93.77 262.441 118.574 283.055 93.2596C303.669 67.9448 285.338 149.725 285.338 149.725L240.854 156.365L246.964 93.77Z" fill="#E7C7CA"/>
<path opacity="0.1" d="M289.425 98.1234L291.062 129.538L292.817 139.991L294.156 147.984C294.156 147.984 297.578 209.473 296.601 212.547C295.623 215.622 297.089 218.081 297.295 219.717C297.5 221.353 297.089 225.46 297.251 227.305C297.412 229.149 297.251 229.967 293.506 229.309C289.762 228.651 284.541 227.508 284.541 227.508C284.541 227.508 271.343 228.737 266.782 226.69C262.221 224.642 253.583 224.636 253.583 224.636C253.583 224.636 240.546 225.048 236.313 224.433C232.079 223.818 229.792 230.994 227.025 228.94C224.258 226.887 230.28 207.013 232.236 201.27C234.191 195.527 229.63 180.979 229.63 180.979L235.496 140.046L236.801 130.768V101.597L237.124 101.456C238.314 100.872 239.376 99.9408 240.223 98.7383L241.69 128.093L287.64 130.147V97.1088" fill="black"/>
<path d="M289.425 96.8936L291.062 128.308L292.817 138.761L294.156 146.755C294.156 146.755 297.578 208.243 296.601 211.318C295.623 214.392 297.089 216.852 297.295 218.487C297.5 220.123 297.089 224.23 297.251 226.075C297.412 227.919 297.251 228.737 293.506 228.079C289.762 227.421 284.541 226.278 284.541 226.278C284.541 226.278 271.343 227.508 266.782 225.46C262.221 223.412 253.583 223.406 253.583 223.406C253.583 223.406 240.546 223.818 236.313 223.203C232.079 222.588 229.792 229.764 227.025 227.71C224.258 225.657 230.28 205.784 232.236 200.041C234.191 194.298 229.63 179.749 229.63 179.749L235.496 138.816L236.801 129.538V100.368L237.124 100.226C238.314 99.6426 239.376 98.711 240.223 97.5085L241.69 126.863L287.64 128.917V95.8791" fill="#E7C7CA"/>
<path opacity="0.1" d="M294.709 31.3345C294.43 30.0494 294.044 28.7151 293.242 27.8543C292.477 27.1629 291.593 26.7079 290.661 26.5261C288.432 25.7886 286.165 25.2422 283.876 24.8905C283.549 23.5252 283.055 22.2326 282.41 21.0598C277.619 12.5498 270.531 4.52555 262.192 2.71164C257.826 1.75857 252.767 2.61326 249.971 6.94205C248.436 9.32166 247.776 12.476 246.226 14.8126C243.239 19.3504 237.848 19.91 234.084 23.421C232.074 25.2656 230.618 27.9404 229.195 30.5352C227.655 33.3452 226.072 36.2721 225.583 39.6293C224.605 46.3377 228.13 52.7325 228.78 59.5024C230.246 74.647 217.341 88.0823 219.78 103.024C221.203 111.737 227.602 117.873 234.22 120.985C236.552 122.085 239.216 123.18 240.306 125.996C240.795 127.226 240.878 128.646 241.338 129.888C242.883 134.033 247.962 134.193 250.689 131.173C253.417 128.154 254.277 123.272 254.6 118.716C255.91 98.8182 249.575 79.1603 250.313 59.2134C250.533 53.1814 251.882 46.3377 256.179 43.6076C261.962 39.9183 268.918 46.0672 275.283 44.8928C278.294 54.1107 278.934 64.2842 277.111 73.983C276.099 79.2894 274.349 84.436 274.222 89.9085C274.031 98.2402 277.605 105.852 280.694 113.219C281.357 114.596 281.8 116.123 281.999 117.714C282.048 119.327 281.809 120.935 281.3 122.417C279.555 128.327 276.544 133.811 276.202 140.102C276.101 140.836 276.233 141.59 276.568 142.204C276.913 142.614 277.357 142.866 277.829 142.918C283.109 144.055 287.675 138.171 290.251 132.262C293.123 125.735 294.797 118.483 295.149 111.036C295.682 98.5169 292.113 86.2007 292.333 73.6694C292.587 59.4225 297.705 45.0772 294.709 31.3345Z" fill="black"/>
<path d="M295.198 30.7196C294.919 29.4345 294.533 28.1002 293.731 27.2394C292.966 26.548 292.081 26.093 291.15 25.9112C288.92 25.1737 286.654 24.6273 284.365 24.2756C284.038 22.9103 283.543 21.6177 282.899 20.4449C278.108 11.9349 271.02 3.91066 262.68 2.09674C258.315 1.14367 253.256 1.99836 250.459 6.32715C248.925 8.70676 248.265 11.8611 246.715 14.1977C243.728 18.7355 238.336 19.2951 234.572 22.8061C232.563 24.6507 231.107 27.3255 229.684 29.9203C228.144 32.7303 226.56 35.6572 226.072 39.0144C225.094 45.7228 228.618 52.1176 229.269 58.8875C230.735 74.0321 217.83 87.4674 220.269 102.409C221.692 111.122 228.09 117.259 234.709 120.37C237.041 121.471 239.705 122.565 240.795 125.381C241.284 126.611 241.367 128.031 241.827 129.273C243.371 133.418 248.45 133.578 251.178 130.559C253.906 127.539 254.766 122.657 255.089 118.101C256.399 98.2033 250.064 78.5454 250.802 58.5985C251.022 52.5665 252.371 45.7228 256.668 42.9927C262.451 39.3034 269.407 45.4523 275.771 44.2779C278.783 53.4958 279.423 63.6693 277.6 73.3681C276.588 78.6745 274.838 83.8211 274.711 89.2936C274.52 97.6253 278.093 105.238 281.183 112.604C281.846 113.981 282.289 115.508 282.488 117.099C282.537 118.713 282.298 120.32 281.789 121.803C280.044 127.712 277.033 133.196 276.69 139.487C276.59 140.221 276.722 140.975 277.057 141.59C277.401 141.999 277.846 142.251 278.318 142.303C283.598 143.44 288.163 137.556 290.74 131.647C293.612 125.12 295.285 117.868 295.638 110.421C296.17 97.902 292.602 85.5858 292.822 73.0545C293.076 58.8076 298.194 44.4623 295.198 30.7196Z" fill="#3E373A"/>
<path d="M284.399 302.972L303.791 303.753L301.01 285.663L286.154 287.44L284.399 302.972Z" fill="#C3C7D9"/>
<path d="M344.487 260.096C343.182 262.144 338.132 265.833 337.643 267.063C337.154 268.293 331.127 271.982 328.028 272.597C324.929 273.212 315.157 275.881 313.363 277.313C312.077 278.346 301.758 281.617 294.978 283.431C293.141 283.978 291.283 284.399 289.41 284.692C286.477 284.895 254.38 271.164 254.38 271.164L260.569 263.171L260.911 263.023C262.661 262.279 270.746 258.842 275.234 257.206C280.288 255.362 286.154 247.78 286.154 247.78C286.154 247.78 294.787 244.091 295.931 243.679C297.075 243.267 292.998 229.334 292.998 229.334C292.998 229.334 311.735 226.063 319.067 223.289C326.4 220.516 343.348 221.543 346.442 232.408C349.537 243.273 345.812 258.049 344.487 260.096Z" fill="#4B4B5B"/>
<path d="M259.102 294.733C259.102 294.733 255.358 299.652 251.608 299.246C247.859 298.84 234.748 300.476 234.748 300.476C232.372 301.668 230.148 303.29 228.144 305.291C225.079 308.328 223.451 305.905 223.148 305.389L223.095 305.291C221.462 311.753 217.717 306.828 217.717 306.828C217.717 306.828 219.345 287.151 218.847 284.692C218.348 282.232 222.068 278.008 222.068 278.008L226.467 276.6L237.613 273.009L253.583 279.976L259.102 294.733Z" fill="#E7C7CA"/>
<path opacity="0.1" d="M226.448 276.6L223.148 305.389L223.095 305.291C221.462 311.753 217.717 306.828 217.717 306.828C217.717 306.828 219.345 287.151 218.847 284.692C218.348 282.232 222.068 278.008 222.068 278.008L226.448 276.6Z" fill="black"/>
<path opacity="0.1" d="M249.511 194.71C249.511 194.71 258.144 198.399 265.643 194.71Z" fill="black"/>
<path opacity="0.1" d="M278.983 201.682C278.983 201.682 282.566 203.933 285.338 201.682Z" fill="black"/>
<path opacity="0.1" d="M278.983 207.02C278.983 207.02 285.01 208.034 286.154 205.987Z" fill="black"/>
<path opacity="0.1" d="M277.028 218.487C277.028 218.487 288.349 216.642 291.16 214.183Z" fill="black"/>
<path opacity="0.1" d="M242.482 214.183C242.482 214.183 248.837 218.69 253.564 218.487Z" fill="black"/>
<path opacity="0.1" d="M294.973 283.431C293.136 283.978 291.278 284.399 289.405 284.692C286.472 284.895 254.375 271.164 254.375 271.164L260.564 263.171L260.906 263.023C261.884 263.89 262.685 264.634 263.257 265.2C265.951 267.869 268.551 264.382 269.529 264.382C270.507 264.382 278.978 273.193 278.978 273.193C278.978 273.193 286.8 275.45 288.105 277.498C289.41 279.545 293.971 279.139 294.782 280.572C295.027 281.015 295.056 282.103 294.973 283.431Z" fill="black"/>
<path d="M234.748 230.17C234.748 230.17 226.839 230.742 222.278 228.325C217.717 225.909 202.563 220.332 198.164 224.249C193.764 228.165 183.171 231.627 188.06 247.208C192.948 262.79 195.231 263.195 195.231 263.195C196.743 264.622 198.064 266.345 199.142 268.299C200.608 271.171 214.295 277.725 217.717 277.725C221.139 277.725 227.166 277.725 235.638 285.104C244.11 292.482 251.77 293.306 251.77 293.306C251.77 293.306 262.524 298.84 265.872 300.07C269.221 301.3 284.522 306.625 288.11 304.989C291.698 303.354 293.976 293.097 293.976 293.097C293.976 293.097 295.603 283.874 294.787 282.441C293.971 281.009 289.41 281.415 288.11 279.367C286.809 277.319 278.983 275.063 278.983 275.063C278.983 275.063 270.531 266.245 269.553 266.245C268.576 266.245 265.975 269.726 263.282 267.063C257.916 262.064 252.279 257.544 246.412 253.536C240.223 249.434 234.748 230.17 234.748 230.17Z" fill="#4B4B5B"/>
<path opacity="0.1" d="M218.847 236.116C220.255 235.754 221.711 235.806 223.1 236.268C224.49 236.73 225.776 237.589 226.859 238.778C230.769 242.88 243.929 251.113 243.929 251.113" fill="black"/>
<path opacity="0.1" d="M316.623 235.858C316.623 235.858 299.187 239.178 295.931 243.685Z" fill="black"/>
<path d="M336.666 303.753H335.898C333.141 303.63 323.799 303.261 322 303.753C319.884 304.368 291.854 303.753 291.854 303.753L297.334 302.321C297.334 302.321 295.3 293.356 296.591 292.612C296.591 292.612 289.258 286.536 294.787 282.435C300.316 278.334 306.275 280.062 306.275 280.062L320.153 274.147L322.817 273.009C322.817 273.009 338.46 274.036 342.693 287.563C346.926 301.091 336.666 303.753 336.666 303.753Z" fill="#E7C7CA"/>
<path opacity="0.1" d="M336.666 303.753H335.898C340.449 299.031 350.744 284.655 320.153 274.177L322.817 273.04C322.817 273.04 338.46 274.067 342.693 287.594C346.926 301.122 336.666 303.753 336.666 303.753Z" fill="black"/>
<path d="M307.907 287.815C308.38 287.815 308.763 287.334 308.763 286.739C308.763 286.145 308.38 285.663 307.907 285.663C307.435 285.663 307.052 286.145 307.052 286.739C307.052 287.334 307.435 287.815 307.907 287.815Z" fill="#4B4B5B"/>
<path d="M302.936 289.592C303.408 289.592 303.791 289.111 303.791 288.516C303.791 287.922 303.408 287.44 302.936 287.44C302.463 287.44 302.08 287.922 302.08 288.516C302.08 289.111 302.463 289.592 302.936 289.592Z" fill="#4B4B5B"/>
<g opacity="0.1">
<path opacity="0.1" d="M278.714 61.1258C278.904 54.3625 277.947 47.6259 275.908 41.3633C269.553 42.5562 262.592 36.3889 256.805 40.0782C252.522 42.8083 251.178 49.652 250.939 55.684C250.88 57.2766 250.87 58.8691 250.895 60.4617C250.895 59.896 250.895 59.3241 250.939 58.7584C251.163 52.7264 252.508 45.8827 256.805 43.1527C262.592 39.4633 269.544 45.6122 275.908 44.4378C277.635 49.7424 278.586 55.3959 278.714 61.1258V61.1258Z" fill="black"/>
<path opacity="0.1" d="M229.469 60.0005C229.553 58.6607 229.531 57.3138 229.405 55.9792C228.887 50.5682 226.536 45.397 226.111 40.1213C225.563 46.4853 228.785 52.5973 229.405 59.0536C229.469 59.3856 229.469 59.6808 229.469 60.0005Z" fill="black"/>
<path opacity="0.1" d="M255.226 115.18C254.923 119.743 254.067 124.619 251.315 127.644C248.563 130.669 243.494 130.503 241.964 126.359C241.475 125.129 241.401 123.696 240.927 122.467C239.842 119.651 237.173 118.556 234.841 117.455C228.218 114.338 221.828 108.232 220.406 99.4946C220.279 98.703 220.192 97.902 220.147 97.0965C220.027 98.9269 220.114 100.769 220.406 102.569C221.828 111.282 228.227 117.412 234.841 120.53C237.173 121.63 239.842 122.725 240.927 125.541C241.416 126.771 241.499 128.191 241.964 129.433C243.503 133.578 248.582 133.738 251.315 130.718C254.048 127.699 254.898 122.817 255.226 118.255C255.375 115.853 255.425 113.444 255.377 111.036C255.377 112.432 255.314 113.809 255.226 115.18Z" fill="black"/>
<path opacity="0.1" d="M292.983 70.14C292.983 71.0315 292.983 71.917 292.983 72.8024C293.257 61.3655 296.591 49.8672 296.263 38.6701C296.009 49.0248 293.169 59.6131 292.983 70.14Z" fill="black"/>
<path opacity="0.1" d="M282.493 116.404C282.613 115.674 282.651 114.927 282.605 114.184C282.408 112.593 281.965 111.066 281.3 109.689C278.475 102.926 275.253 96.002 274.872 88.4943C274.872 88.814 274.838 89.1091 274.833 89.4535C274.637 97.779 278.211 105.397 281.3 112.764C281.825 113.905 282.226 115.129 282.493 116.404V116.404Z" fill="black"/>
<path opacity="0.1" d="M295.794 107.507C295.429 114.956 293.744 122.208 290.862 128.732C288.281 134.641 283.72 140.526 278.436 139.388C277.962 139.337 277.517 139.083 277.174 138.669C277.075 138.528 276.997 138.365 276.945 138.189C276.886 138.669 276.837 139.155 276.808 139.647C276.707 140.379 276.838 141.132 277.174 141.743C277.517 142.157 277.962 142.411 278.436 142.463C283.72 143.6 288.281 137.716 290.862 131.807C293.744 125.283 295.429 118.03 295.794 110.581C295.853 109.142 295.858 107.709 295.823 106.277C295.814 106.689 295.814 107.095 295.794 107.507Z" fill="black"/>
</g>
<path opacity="0.1" d="M296.591 292.612C296.591 292.612 308.963 299.142 317.122 284.692" stroke="black" stroke-miterlimit="10"/>
<path opacity="0.1" d="M299.025 304.024C299.025 304.024 309.129 295.76 322 303.753" stroke="black" stroke-miterlimit="10"/>
<path opacity="0.1" d="M231.39 302.148C231.39 302.148 235.633 290.109 246.964 299.289" stroke="black" stroke-miterlimit="10"/>
<path opacity="0.1" d="M217.634 124.102L226.287 114.264C226.287 114.264 259.835 111.497 261.224 125.842C261.224 125.842 273.117 108.835 298.131 112.622L308.714 123.223L279.462 139.37L251.036 151.772L230.1 139.985L217.634 124.102Z" fill="black"/>
<path d="M217.634 124.717L226.287 114.879C226.287 114.879 259.835 112.112 261.224 126.457C261.224 126.457 273.117 109.45 298.131 113.237L308.714 123.838L279.462 139.985L251.036 152.387L230.1 140.6L217.634 124.717Z" fill="#D5D6DB"/>
<path opacity="0.1" d="M213.807 125.947L217.634 183.543L258.208 186.107L256.448 128.757L256.413 127.792L213.807 125.947Z" fill="black"/>
<path d="M213.807 124.717L217.634 182.313L258.208 184.878L256.448 127.527L256.413 126.562L213.807 124.717Z" fill="#C32950"/>
<path opacity="0.1" d="M310.572 124.717L268.718 132.612V190.467L309.618 183.033L310.572 124.717Z" fill="black"/>
<path d="M310.572 123.487L268.718 131.383V189.237L309.618 181.803L310.572 123.487Z" fill="#C32950"/>
<path opacity="0.3" d="M300.702 137.605L278.093 140.766L278.587 150.456L300.687 147.419L300.702 137.605Z" fill="white"/>
<path d="M219.834 213.156L222.136 220.947C222.136 220.947 225.558 224.636 229.303 222.791C233.047 220.947 236.313 220.03 237.94 218.235C239.568 216.44 241.851 207.419 241.851 207.419C241.851 207.419 244.134 197.581 246.412 195.122C248.69 192.662 254.722 158.776 246.412 162.09C238.102 165.404 231.747 196.148 231.747 196.148C231.747 196.148 230.28 198.399 228.164 198.608C226.047 198.817 221.809 198.196 220.993 200.453C220.176 202.709 217.39 208.649 219.834 213.156Z" fill="#BE6F72"/>
<path opacity="0.1" d="M268.717 132.606C266.575 133.214 264.348 133.182 262.217 132.513C260.086 131.845 258.108 130.559 256.443 128.757L258.207 186.101C258.207 186.101 262.363 191.758 268.717 190.467V132.606Z" fill="black"/>
<path d="M268.717 131.376C266.575 131.984 264.348 131.952 262.217 131.284C260.086 130.615 258.108 129.329 256.443 127.527L258.207 184.871C258.207 184.871 262.363 190.528 268.717 189.237V131.376Z" fill="#C32950"/>
<path opacity="0.1" d="M268.717 131.376C266.575 131.984 264.348 131.952 262.217 131.284C260.086 130.615 258.108 129.329 256.443 127.527L258.207 184.871C258.207 184.871 262.363 190.528 268.717 189.237V131.376Z" fill="black"/>
<path opacity="0.1" d="M269.695 124.914C269.695 124.914 286.721 118.365 291.16 119.288Z" fill="black"/>
<path opacity="0.1" d="M250.65 122.055C250.65 122.055 234.147 117.136 231.39 118.531Z" fill="black"/>
<path opacity="0.1" d="M280.43 125.732C280.43 125.732 291.815 120.481 295.931 122.977Z" fill="black"/>
<path opacity="0.1" d="M274.696 257.459C276.46 255.792 278.338 254.325 280.308 253.074C283.241 251.297 288.618 246.686 288.618 246.686" fill="black"/>
<path opacity="0.1" d="M231.39 194.71C231.39 194.71 224.248 202.057 222.102 202.703C219.956 203.349 218.631 209.079 218.631 209.079" fill="black"/>
<path d="M306.372 212.062L304.094 219.871C304.094 219.871 300.673 223.56 296.923 221.715C293.174 219.871 289.918 218.954 288.286 217.159C286.653 215.364 284.375 206.343 284.375 206.343C284.375 206.343 282.097 196.505 279.814 194.045C277.531 191.586 271.504 157.7 279.814 161.014C288.124 164.328 294.479 195.072 294.479 195.072C294.479 195.072 295.946 197.323 298.062 197.532C300.179 197.741 304.417 197.12 305.233 199.377C306.05 201.633 308.817 207.573 306.372 212.062Z" fill="#BE6F72"/>
<path opacity="0.1" d="M302.379 197.698C302.379 197.698 307.047 201.473 307.027 205.987Z" fill="black"/>
<path d="M262.768 88.2606C274.828 88.2606 284.605 75.9633 284.605 60.7937C284.605 45.6241 274.828 33.3268 262.768 33.3268C250.709 33.3268 240.932 45.6241 240.932 60.7937C240.932 75.9633 250.709 88.2606 262.768 88.2606Z" fill="#BE6F72"/>
<path d="M249.057 53.4212C251.706 52.8986 254.028 50.9617 256.56 49.8487C262.226 47.3461 268.493 49.0617 274.227 51.3183C276.426 52.1853 278.66 53.163 280.968 53.163C283.275 53.163 285.724 51.9762 286.902 49.4736C287.987 47.174 287.777 44.1856 286.863 41.7691C285.949 39.3526 284.419 37.4096 282.874 35.5772C277.79 29.5391 271.484 23.8944 264.509 24.5093C261.703 24.7614 259.019 26.0219 256.438 27.4177C253.188 29.1794 250.025 31.1833 246.964 33.419C244.613 35.1345 240.258 37.428 238.903 40.564C235.824 47.629 244.266 54.3681 249.057 53.4212Z" fill="#3E373A"/>
<path opacity="0.1" d="M286.902 46.8911C285.724 49.3937 283.275 50.5804 280.968 50.5804C278.66 50.5804 276.426 49.6397 274.222 48.7727C268.488 46.516 262.226 44.7944 256.555 47.3031C254.028 48.416 251.701 50.3775 249.052 50.8694C245.19 51.6319 238.972 47.4015 238.297 42.0212C237.54 48.2377 244.75 53.5626 249.052 52.7141C251.701 52.1914 254.028 50.2546 256.555 49.1478C262.226 46.639 268.488 48.3607 274.222 50.6173C276.426 51.4843 278.656 52.462 280.968 52.4251C283.28 52.3882 285.724 51.2445 286.902 48.7358C287.513 47.371 287.753 45.793 287.587 44.241C287.51 45.1754 287.277 46.0787 286.902 46.8911Z" fill="black"/>
<path d="M464.11 380.128C464.11 380.128 467.009 384.894 462.77 392.094C458.532 399.294 455.042 405.369 456.45 409.858C456.45 409.858 462.844 396.49 468.045 396.3C473.246 396.109 469.824 388.165 464.11 380.128Z" fill="#C32950"/>
<path opacity="0.1" d="M464.11 380.128C464.362 380.588 464.561 381.092 464.701 381.622C469.775 389.124 472.483 396.127 467.6 396.3C463.054 396.466 457.603 406.691 456.298 409.268C456.34 409.476 456.39 409.681 456.45 409.882C456.45 409.882 462.844 396.515 468.045 396.324C473.246 396.134 469.824 388.165 464.11 380.128Z" fill="black"/>
<path d="M469.487 386.203C469.487 387.882 469.335 389.241 469.154 389.241C468.974 389.241 468.817 387.882 468.817 386.203C468.817 384.525 469.003 385.318 469.189 385.318C469.374 385.318 469.487 384.525 469.487 386.203Z" fill="#FFD037"/>
<path d="M471.34 388.208C470.171 389.007 469.15 389.493 469.062 389.29C468.974 389.087 469.849 388.269 471.017 387.445C472.185 386.621 471.726 387.224 471.814 387.445C471.902 387.667 472.513 387.402 471.34 388.208Z" fill="#FFD037"/>
<path d="M448.79 380.128C448.79 380.128 445.891 384.894 450.129 392.094C454.367 399.294 457.858 405.369 456.445 409.858C456.445 409.858 450.056 396.49 444.85 396.3C439.644 396.109 443.09 388.165 448.79 380.128Z" fill="#C32950"/>
<path opacity="0.1" d="M448.79 380.128C448.537 380.588 448.338 381.092 448.198 381.622C443.124 389.124 440.416 396.127 445.299 396.3C449.841 396.466 455.296 406.691 456.601 409.268C456.56 409.477 456.508 409.682 456.445 409.882C456.445 409.882 450.056 396.515 444.85 396.324C439.644 396.134 443.09 388.165 448.79 380.128Z" fill="black"/>
<path d="M443.403 386.203C443.403 387.882 443.549 389.241 443.735 389.241C443.921 389.241 444.072 387.882 444.072 386.203C444.072 384.525 443.882 385.318 443.701 385.318C443.52 385.318 443.403 384.525 443.403 386.203Z" fill="#FFD037"/>
<path d="M441.555 388.208C442.723 389.007 443.745 389.493 443.833 389.29C443.921 389.087 443.046 388.269 441.877 387.445C440.709 386.621 441.169 387.224 441.081 387.445C440.993 387.667 440.382 387.402 441.555 388.208Z" fill="#FFD037"/>
<path opacity="0.1" d="M456.45 446.333C473.188 446.333 486.757 443.715 486.757 440.485C486.757 437.256 473.188 434.638 456.45 434.638C439.711 434.638 426.142 437.256 426.142 440.485C426.142 443.715 439.711 446.333 456.45 446.333Z" fill="#C32950"/>
<path d="M472.048 403.432L471.902 404.92L471.696 407.023L471.613 407.903L471.408 410.005L471.32 410.885L471.12 412.981L468.798 436.901C468.592 439.034 465.821 440.701 462.472 440.701H450.422C447.074 440.701 444.307 439.034 444.097 436.901L441.775 412.981L441.57 410.885L441.486 410.005L441.281 407.903L441.193 407.023L440.993 404.92L440.846 403.432C440.734 402.203 442.229 401.206 444.126 401.206H468.773C470.665 401.206 472.166 402.221 472.048 403.432Z" fill="#65617D"/>
<path d="M471.902 404.92L471.701 407.023H441.198L440.993 404.92H471.902Z" fill="#9D9CB5"/>
<path d="M471.613 407.902L471.413 410.005H441.486L441.281 407.902H471.613Z" fill="#9D9CB5"/>
<path d="M471.325 410.885L471.12 412.988H441.775L441.574 410.885H471.325Z" fill="#9D9CB5"/>
</g>
<defs>
<linearGradient id="paint0_linear" x1="267.217" y1="308.623" x2="267.217" y2="3.03824e-06" gradientUnits="userSpaceOnUse">
<stop stop-color="#808080" stop-opacity="0.25"/>
<stop offset="0.54" stop-color="#808080" stop-opacity="0.12"/>
<stop offset="1" stop-color="#808080" stop-opacity="0.1"/>
</linearGradient>
<clipPath id="clip0">
<rect width="500" height="500" fill="white"/>
</clipPath>
</defs>
</svg>
